<svg version="1.1" id="Capa_1" xmlns="http://www.w3.org/2000/svg" xmlns:xlink="http://www.w3.org/1999/xlink" x="0px" y="0px" width="11px"
	 viewBox="-431 218 11 18.8" enable-background="new -431 218 11 18.8" xml:space="preserve">
<g>
	<path fill="#969EA5" d="M-420.5,226.3c-0.6-0.6-1.7-0.6-2.3,0l-7.7,7.7c-0.3,0.3-0.5,0.7-0.5,1.2c0,0.4,0.2,0.8,0.5,1.2
		c0.6,0.6,1.7,0.6,2.3,0l7.7-7.7C-419.8,228-419.8,226.9-420.5,226.3z"/>
	<path fill="#969EA5" d="M-420.5,228.5c-0.6,0.6-1.7,0.6-2.3,0l-7.7-7.7c-0.3-0.3-0.5-0.7-0.5-1.2c0-0.4,0.2-0.8,0.5-1.2
		c0.6-0.6,1.7-0.6,2.3,0l7.7,7.7C-419.8,226.8-419.8,227.9-420.5,228.5z"/>
</g>
</svg>
