<svg version="1.1" id="Capa_1" xmlns="http://www.w3.org/2000/svg" xmlns:xlink="http://www.w3.org/1999/xlink" x="0px" y="0px" width="22px"
	 viewBox="0 0 22 11.6" enable-background="new 0 0 22 11.6" xml:space="preserve">
<g>
	<path fill="#055498" d="M0.8,6.7l14.6,0c0.4,0,0.8-0.4,0.8-0.8c0-0.2-0.1-0.4-0.2-0.6c-0.1-0.1-0.3-0.2-0.6-0.2l-14.6,0
		C0.4,5.1,0,5.4,0,5.9C0,6.3,0.4,6.7,0.8,6.7z"/>
	<path fill="#055498" d="M0.2,6.4l5,5c0.3,0.3,0.8,0.3,1.1,0c0.2-0.2,0.2-0.4,0.2-0.6c0-0.2-0.1-0.4-0.2-0.6l-5-5
		C1.1,5,0.5,5,0.2,5.3C-0.1,5.6-0.1,6.1,0.2,6.4z"/>
	<path fill="#055498" d="M0.2,6.3c0.3,0.3,0.8,0.3,1.1,0l5-5C6.5,1.2,6.6,1,6.6,0.8S6.5,0.4,6.3,0.2C6-0.1,5.5-0.1,5.2,0.2l-5,5
		C-0.1,5.5-0.1,6,0.2,6.3z"/>
	<path fill="#055498" d="M18.1,6.7l3.1,0c0.4,0,0.8-0.4,0.8-0.8c0-0.2-0.1-0.4-0.2-0.6c-0.1-0.1-0.3-0.2-0.6-0.2h-3.1
		c-0.4,0-0.8,0.4-0.8,0.8C17.3,6.3,17.7,6.7,18.1,6.7z"/>
</g>
</svg>
