<?xml version="1.0" encoding="utf-8"?>
<!-- Generator: Adobe Illustrator 16.0.0, SVG Export Plug-In . SVG Version: 6.00 Build 0)  -->
<!DOCTYPE svg PUBLIC "-//W3C//DTD SVG 1.1//EN" "http://www.w3.org/Graphics/SVG/1.1/DTD/svg11.dtd">
<svg version="1.1" id="Capa_1" xmlns="http://www.w3.org/2000/svg" xmlns:xlink="http://www.w3.org/1999/xlink" x="0px" y="0px"
	 viewBox="126.263 0 342.753 419.531" enable-background="new 126.263 0 342.753 419.531"
	 xml:space="preserve">
<g>
	<path d="M459.526,0h-37.967c-4.709,0-8.706,3.452-9.392,8.11l-9.974,67.823H135.783h-0.009h-0.02c-0.11,0-0.218,0.013-0.327,0.018
		c-0.216,0.007-0.431,0.012-0.643,0.034c-0.181,0.019-0.358,0.053-0.536,0.082c-0.141,0.023-0.284,0.039-0.423,0.068
		c-0.192,0.04-0.382,0.095-0.571,0.147c-0.116,0.032-0.236,0.06-0.352,0.096c-0.207,0.066-0.408,0.145-0.611,0.224
		c-0.089,0.035-0.178,0.065-0.265,0.103c-0.223,0.096-0.439,0.203-0.653,0.316c-0.057,0.03-0.113,0.056-0.168,0.086
		c-0.233,0.128-0.461,0.268-0.684,0.416c-0.027,0.019-0.056,0.036-0.083,0.055c-0.239,0.162-0.471,0.336-0.695,0.52
		c-0.004,0.003-0.008,0.005-0.011,0.009c-0.385,0.317-0.755,0.654-1.09,1.034c-1.801,2.038-2.643,4.751-2.308,7.451
		c0.037,0.31,17.521,141.925,17.521,141.925c0.532,4.312,3.925,7.711,8.235,8.254l222.337,27.967l-8.526,57.977H165.285
		c-5.242,0-9.491,4.252-9.491,9.492c0,5.242,4.249,9.492,9.491,9.492h208.816c4.708,0,8.705-3.453,9.391-8.111l46.265-314.604
		h29.769c5.241,0,9.491-4.25,9.491-9.492S464.767,0,459.526,0z M161.792,218.855c-9.48-76.794-13.552-109.772-15.301-123.939
		h252.912l-22.211,151.033L161.792,218.855z"/>
	<path d="M189.964,351.191c-18.842,0-34.17,15.328-34.17,34.17s15.328,34.17,34.17,34.17s34.17-15.328,34.17-34.17
		S208.804,351.191,189.964,351.191z M189.964,400.546c-8.374,0-15.187-6.813-15.187-15.186c0-8.375,6.813-15.188,15.187-15.188
		c8.373,0,15.187,6.813,15.187,15.188C205.15,393.734,198.337,400.546,189.964,400.546z"/>
	<path d="M349.423,351.191c-18.842,0-34.17,15.328-34.17,34.17s15.328,34.17,34.17,34.17s34.17-15.328,34.17-34.17
		S368.263,351.191,349.423,351.191z M349.423,400.546c-8.373,0-15.187-6.813-15.187-15.186c0-8.375,6.813-15.188,15.187-15.188
		c8.374,0,15.187,6.813,15.187,15.188C364.609,393.734,357.797,400.546,349.423,400.546z"/>
	<path d="M372.319,150.795c0.121,0.005,0.239,0.006,0.359,0.006c5.079,0,9.288-4.021,9.478-9.139
		c0.195-5.24-3.895-9.643-9.133-9.837l-46.562-1.728l1.5-15.269c0.513-5.217-3.301-9.863-8.518-10.375
		c-5.221-0.508-9.862,3.302-10.375,8.518l-1.614,16.42l-68.305-2.535l0.261-12.762c0.107-5.242-4.054-9.577-9.295-9.685
		c-0.066-0.001-0.132-0.002-0.197-0.002c-5.152,0-9.38,4.124-9.486,9.297l-0.254,12.447l-49.407-1.834
		c-5.232-0.206-9.643,3.896-9.837,9.133c-0.194,5.239,3.895,9.643,9.133,9.837l49.723,1.845l-0.635,31.035l-42-3.308
		c-5.228-0.416-9.796,3.491-10.207,8.717s3.491,9.795,8.717,10.208l43.102,3.394l-0.259,12.675
		c-0.107,5.241,4.054,9.577,9.295,9.685c0.066,0.001,0.132,0.002,0.197,0.002c5.152,0,9.38-4.123,9.486-9.297l0.237-11.571
		l62.635,4.933l-1.534,15.611c-0.513,5.219,3.301,9.863,8.518,10.375c0.316,0.031,0.629,0.047,0.939,0.047
		c4.824,0,8.953-3.662,9.435-8.563l1.571-15.979l43.77,3.447c0.254,0.02,0.505,0.03,0.756,0.03c4.904,0,9.061-3.776,9.451-8.748
		c0.412-5.226-3.491-9.795-8.717-10.207l-43.402-3.418l3.458-35.177L372.319,150.795z M302.216,182.71l-64.104-5.049l0.651-31.823
		l66.834,2.48L302.216,182.71z"/>
</g>
</svg>
