<?xml version="1.0" encoding="utf-8"?>
<!-- Generator: Adobe Illustrator 16.0.0, SVG Export Plug-In . SVG Version: 6.00 Build 0)  -->
<!DOCTYPE svg PUBLIC "-//W3C//DTD SVG 1.1//EN" "http://www.w3.org/Graphics/SVG/1.1/DTD/svg11.dtd">
<svg version="1.1" id="Capa_1" xmlns="http://www.w3.org/2000/svg" xmlns:xlink="http://www.w3.org/1999/xlink" x="0px" y="0px"
	 width="595.281px" height="419.531px" viewBox="0 0 595.281 419.531" enable-background="new 0 0 595.281 419.531"
	 xml:space="preserve">
<g>
	<path d="M408.593,179.842c-0.01-0.078-0.016-0.157-0.027-0.233c-0.055-0.384-0.128-0.766-0.231-1.144
		c-0.001-0.003-0.003-0.007-0.004-0.012c-0.097-0.353-0.22-0.701-0.359-1.046c-0.04-0.099-0.083-0.194-0.126-0.291
		c-0.11-0.249-0.232-0.494-0.365-0.734c-0.059-0.105-0.114-0.211-0.177-0.314c-0.033-0.056-0.06-0.114-0.095-0.17
		c-0.141-0.223-0.295-0.433-0.45-0.641c-0.029-0.039-0.054-0.08-0.083-0.118c-0.237-0.308-0.493-0.593-0.762-0.864
		c-0.051-0.051-0.105-0.099-0.157-0.148c-0.234-0.225-0.476-0.436-0.729-0.634c-0.064-0.05-0.127-0.101-0.193-0.149
		c-0.338-0.25-0.687-0.484-1.05-0.686L263.949,93.173l80.513-50.698l134.977,76.722l-56.846,35.795
		c-4.437,2.792-5.769,8.654-2.975,13.089c2.792,4.437,8.652,5.768,13.089,2.975l70.262-44.243c2.825-1.778,4.508-4.909,4.432-8.247
		c-0.074-3.337-1.896-6.388-4.799-8.037L348.902,23.163c-3.041-1.729-6.787-1.644-9.748,0.219l-98.671,62.133
		c-0.02,0.012-0.041,0.026-0.061,0.038l-49.306,31.048c-0.022,0.014-0.046,0.028-0.067,0.042l-98.738,62.176
		c-2.824,1.777-4.507,4.909-4.432,8.246c0.075,3.337,1.896,6.388,4.799,8.038l153.701,87.365c1.456,0.829,3.073,1.241,4.689,1.241
		c1.759,0,3.515-0.489,5.058-1.46l70.262-44.244c4.437-2.792,5.769-8.653,2.975-13.088c-2.791-4.438-8.653-5.77-13.089-2.975
		l-65.454,41.215l-134.977-76.724l80.513-50.699l143.958,81.829v108.377c0,3.457,1.879,6.639,4.904,8.309
		c1.431,0.791,3.01,1.182,4.588,1.182c1.76,0,3.516-0.488,5.057-1.459l49.37-31.088c2.76-1.738,4.434-4.771,4.434-8.031V180.954
		c0-0.056-0.009-0.109-0.011-0.165C408.65,180.474,408.63,180.158,408.593,179.842z M359.298,308.748v-96.705
		c0-3.414-1.834-6.564-4.802-8.251L214.58,124.261l31.145-19.612L380.7,181.372l-11.817,7.441
		c-4.437,2.792-5.769,8.654-2.975,13.089c1.803,2.867,4.887,4.436,8.041,4.436c1.728,0,3.478-0.472,5.048-1.46l10.687-6.729v91.467
		L359.298,308.748z"/>
	<path d="M492.855,148.715l-70.262,44.243c-4.437,2.792-5.769,8.654-2.975,13.089c1.804,2.867,4.887,4.436,8.041,4.436
		c1.728,0,3.478-0.472,5.048-1.46l70.262-44.243c4.437-2.792,5.769-8.653,2.975-13.089
		C503.152,147.253,497.291,145.92,492.855,148.715z"/>
	<path d="M316.273,259.908l-65.454,41.217l-148.761-84.559c-4.554-2.59-10.352-0.998-12.941,3.562
		c-2.591,4.557-0.997,10.352,3.561,12.941l153.701,87.366c1.456,0.828,3.073,1.24,4.689,1.24c1.759,0,3.515-0.488,5.058-1.459
		l70.262-44.244c4.437-2.793,5.769-8.654,2.975-13.09C326.571,258.446,320.709,257.113,316.273,259.908z"/>
	<path d="M492.855,186.681l-70.262,44.242c-4.437,2.793-5.769,8.654-2.975,13.09c1.804,2.866,4.887,4.436,8.041,4.436
		c1.728,0,3.478-0.473,5.048-1.461l70.262-44.243c4.437-2.792,5.769-8.654,2.975-13.089
		C503.152,185.218,497.291,183.887,492.855,186.681z"/>
	<path d="M316.273,297.874l-65.454,41.216l-148.761-84.557c-4.554-2.59-10.352-0.999-12.941,3.561
		c-2.591,4.557-0.997,10.352,3.561,12.941l153.701,87.367c1.456,0.828,3.073,1.24,4.689,1.24c1.759,0,3.515-0.488,5.058-1.461
		l70.262-44.242c4.437-2.793,5.769-8.654,2.975-13.09C326.571,296.412,320.709,295.08,316.273,297.874z"/>
	<path d="M492.855,224.647l-70.262,44.243c-4.437,2.793-5.769,8.653-2.975,13.089c1.804,2.866,4.887,4.436,8.041,4.436
		c1.728,0,3.478-0.472,5.048-1.461l70.262-44.243c4.437-2.792,5.769-8.653,2.975-13.088
		C503.152,223.185,497.291,221.854,492.855,224.647z"/>
	<path d="M316.273,335.839l-65.454,41.217l-148.761-84.558c-4.554-2.589-10.352-0.999-12.941,3.562
		c-2.591,4.557-0.997,10.352,3.561,12.941l153.701,87.365c1.456,0.83,3.073,1.242,4.689,1.242c1.759,0,3.515-0.49,5.058-1.461
		l70.262-44.244c4.437-2.791,5.769-8.652,2.975-13.088C326.571,334.378,320.709,333.046,316.273,335.839z"/>
</g>
</svg>
