<svg version="1.1" xmlns="http://www.w3.org/2000/svg" xmlns:xlink="http://www.w3.org/1999/xlink" x="0px" y="0px" width="15px"
	 viewBox="-397 219 15 10.6" enable-background="new -397 219 15 10.6" xml:space="preserve">
<g>
	<path fill="#055498" d="M-390.9,229.3l8.7-8.7c0.4-0.4,0.4-1,0-1.3c-0.2-0.2-0.4-0.3-0.7-0.3c-0.2,0-0.5,0.1-0.7,0.3l-8.7,8.7
		c-0.4,0.4-0.4,1,0,1.3C-391.9,229.7-391.3,229.7-390.9,229.3z"/>
	<path fill="#055498" d="M-391,229.3c0.4-0.4,0.4-1,0-1.3l-4.4-4.4c-0.2-0.2-0.4-0.3-0.7-0.3c-0.2,0-0.5,0.1-0.7,0.3
		c-0.4,0.4-0.4,1,0,1.3l4.4,4.4C-391.9,229.7-391.3,229.7-391,229.3z"/>
</g>
</svg>
