<?xml version="1.0" encoding="utf-8"?>
<!-- Generator: Adobe Illustrator 16.0.0, SVG Export Plug-In . SVG Version: 6.00 Build 0)  -->
<!DOCTYPE svg PUBLIC "-//W3C//DTD SVG 1.1//EN" "http://www.w3.org/Graphics/SVG/1.1/DTD/svg11.dtd">
<svg version="1.1" id="Capa_1" xmlns="http://www.w3.org/2000/svg" xmlns:xlink="http://www.w3.org/1999/xlink" x="0px" y="0px"
	 width="289.075px" height="203.351px" viewBox="162.329 190.385 289.075 203.351"
	 enable-background="new 162.329 190.385 289.075 203.351" xml:space="preserve">
<path d="M279.183,388.402l166.9-166.967c7.098-7.11,7.094-18.623-0.01-25.728c-3.556-3.549-8.205-5.323-12.858-5.323
	c-4.655,0.003-9.313,1.78-12.859,5.332l-166.9,166.972c-7.097,7.101-7.093,18.619,0.006,25.722
	C260.568,395.515,272.086,395.51,279.183,388.402z"/>
<path d="M278.786,388.412c7.103-7.104,7.106-18.619,0.009-25.722l-85.415-85.49c-3.549-3.55-8.202-5.324-12.863-5.328
	c-4.652-0.002-9.303,1.772-12.859,5.321c-7.101,7.104-7.106,18.617-0.009,25.724l85.417,85.487
	C260.165,395.51,271.681,395.514,278.786,388.412z"/>
</svg>
