<?xml version="1.0" encoding="utf-8"?>
<!-- Generator: Adobe Illustrator 16.0.0, SVG Export Plug-In . SVG Version: 6.00 Build 0)  -->
<!DOCTYPE svg PUBLIC "-//W3C//DTD SVG 1.1//EN" "http://www.w3.org/Graphics/SVG/1.1/DTD/svg11.dtd">
<svg version="1.1" id="Capa_1" xmlns="http://www.w3.org/2000/svg" xmlns:xlink="http://www.w3.org/1999/xlink" x="0px" y="0px"
	 viewBox="0 0 595.281 419.531" enable-background="new 0 0 595.281 419.531"
	 xml:space="preserve">
<g>
	<path d="M212.476,244.306c-13.539,0-26.256,5.26-35.808,14.813c-9.553,9.553-14.813,22.27-14.813,35.809
		s5.261,26.256,14.813,35.809c9.552,9.553,22.269,14.813,35.808,14.813c13.54,0,26.257-5.26,35.808-14.813
		c9.553-9.553,14.814-22.27,14.814-35.809s-5.261-26.256-14.813-35.809C238.733,249.566,226.016,244.306,212.476,244.306z
		 M235.052,317.501c-6.018,6.02-14.035,9.332-22.575,9.332s-16.557-3.313-22.575-9.332c-6.018-6.018-9.331-14.035-9.331-22.574
		c0-8.541,3.313-16.559,9.332-22.576c6.018-6.018,14.035-9.332,22.575-9.332s16.558,3.314,22.575,9.332s9.332,14.035,9.332,22.576
		C244.384,303.466,241.069,311.484,235.052,317.501z"/>
	<path d="M330.142,296.91l-28.889-7.739c-0.752-11.743-3.802-23.175-8.986-33.677l21.119-21.117c3.653-3.654,3.653-9.58,0-13.234
		l-27.126-27.125c-1.754-1.754-4.135-2.74-6.616-2.74s-4.861,0.986-6.616,2.74l-21.119,21.12c-10.49-5.173-21.936-8.23-33.675-8.985
		l-7.741-28.89c-0.643-2.398-2.21-4.441-4.359-5.682c-2.148-1.241-4.701-1.578-7.1-0.935l-37.056,9.928
		c-4.99,1.338-7.953,6.469-6.616,11.459l7.729,28.844c-4.856,3.241-9.395,6.961-13.548,11.116
		c-4.154,4.153-7.876,8.691-11.116,13.548l-28.844-7.729c-4.992-1.342-10.122,1.624-11.46,6.615l-9.93,37.056
		c-0.643,2.397-0.306,4.95,0.935,7.1c1.241,2.149,3.284,3.718,5.682,4.359l28.89,7.739c0.752,11.742,3.803,23.178,8.986,33.678
		l-21.118,21.117c-3.654,3.654-3.654,9.58,0,13.234l27.125,27.125c1.755,1.754,4.135,2.74,6.616,2.74s4.862-0.986,6.616-2.74
		l21.119-21.119c10.491,5.174,21.937,8.23,33.676,8.984l7.74,28.891c1.12,4.182,4.9,6.939,9.032,6.939
		c0.802,0,1.617-0.105,2.429-0.322l37.055-9.93c4.991-1.338,7.953-6.467,6.616-11.459l-7.729-28.844
		c4.855-3.24,9.393-6.959,13.548-11.117c4.154-4.154,7.875-8.691,11.115-13.547l28.845,7.729c4.99,1.34,10.121-1.625,11.459-6.615
		l9.929-37.055c0.643-2.398,0.306-4.951-0.935-7.102C334.585,299.121,332.54,297.553,330.142,296.91z M311.176,331.544l-26.57-7.119
		c-4.153-1.113-8.533,0.75-10.612,4.514c-3.169,5.74-7.145,11.018-11.815,15.689c-4.672,4.67-9.95,8.646-15.688,11.816
		c-3.766,2.08-5.629,6.457-4.515,10.611l7.118,26.57l-18.979,5.086l-7.132-26.615c-1.098-4.098-4.81-6.936-9.036-6.936
		c-0.058,0-0.115,0.002-0.173,0.002c-13.264,0.236-26.299-3.236-37.569-10.025c-3.684-2.219-8.403-1.641-11.444,1.398
		l-19.452,19.451l-13.893-13.893l19.451-19.451c3.04-3.041,3.618-7.762,1.399-11.443c-6.802-11.293-10.268-24.283-10.024-37.57
		c0.079-4.297-2.781-8.096-6.934-9.209l-26.616-7.131l5.086-18.979l26.569,7.119c4.155,1.111,8.533-0.75,10.612-4.514
		c3.171-5.742,7.146-11.019,11.816-15.69c4.669-4.669,9.947-8.644,15.689-11.817c3.764-2.08,5.627-6.457,4.514-10.611l-7.119-26.569
		l18.979-5.086l7.132,26.615c1.113,4.153,4.932,7,9.208,6.934c13.267-0.225,26.303,3.24,37.571,10.026
		c3.684,2.218,8.403,1.642,11.444-1.399l19.451-19.451l13.894,13.893l-19.452,19.452c-3.041,3.04-3.617,7.762-1.398,11.444
		c6.801,11.29,10.267,24.281,10.023,37.568c-0.078,4.299,2.782,8.098,6.935,9.209l26.615,7.133L311.176,331.544z"/>
	<path d="M395.908,75.688c-4.284-1.149-8.691-1.731-13.098-1.731c-22.883,0-43.001,15.437-48.924,37.539
		c-4.67,17.426,0.364,36.188,13.139,48.96c6.243,6.245,14.082,10.761,22.669,13.061c4.284,1.149,8.691,1.731,13.098,1.731
		c22.883,0,43.001-15.437,48.923-37.538c4.67-17.427-0.364-36.188-13.139-48.962C412.333,82.504,404.495,77.987,395.908,75.688z
		 M413.64,132.865c-3.734,13.935-16.419,23.668-30.848,23.668c-2.771,0-5.548-0.369-8.255-1.093
		c-5.418-1.452-10.355-4.293-14.279-8.216c-8.062-8.061-11.24-19.896-8.296-30.886c3.734-13.935,16.42-23.668,30.848-23.668
		c2.771,0,5.548,0.369,8.255,1.093c5.417,1.452,10.354,4.292,14.278,8.216C413.406,110.042,416.585,121.875,413.64,132.865z"/>
	<path d="M507.085,111.158l-9.93-37.055c-1.338-4.993-6.469-7.954-11.46-6.616l-28.868,7.735
		c-3.255-4.901-6.981-9.457-11.125-13.602c-4.118-4.117-8.646-7.82-13.517-11.063l7.73-28.85c0.644-2.397,0.307-4.951-0.935-7.1
		c-1.24-2.149-3.284-3.717-5.681-4.359l-37.056-9.93c-2.398-0.644-4.952-0.307-7.1,0.935c-2.149,1.241-3.718,3.284-4.359,5.681
		l-7.73,28.849c-11.682,0.764-23.121,3.844-33.655,9.056l-21.15-21.149c-3.653-3.653-9.578-3.653-13.232,0l-27.125,27.125
		c-3.655,3.654-3.655,9.579,0,13.233l21.114,21.115c-2.585,5.234-4.654,10.725-6.175,16.4c-1.512,5.644-2.458,11.433-2.826,17.284
		l-28.87,7.736c-2.396,0.643-4.44,2.21-5.681,4.359c-1.241,2.149-1.578,4.703-0.936,7.1l9.929,37.055
		c1.337,4.991,6.469,7.953,11.461,6.616l28.867-7.735c3.254,4.899,6.979,9.454,11.125,13.601c4.118,4.117,8.646,7.821,13.518,11.063
		l-7.731,28.851c-1.338,4.99,1.625,10.121,6.617,11.459l37.055,9.929c0.797,0.214,1.611,0.319,2.421,0.319
		c1.63,0,3.244-0.425,4.679-1.254c2.149-1.24,3.718-3.284,4.359-5.682l7.73-28.85c11.683-0.764,23.122-3.844,33.656-9.056
		l21.149,21.149c3.653,3.652,9.579,3.652,13.232,0l27.125-27.125c3.654-3.654,3.654-9.579,0-13.233l-21.114-21.115
		c2.585-5.234,4.654-10.726,6.175-16.401c1.512-5.643,2.458-11.431,2.826-17.283l28.871-7.737
		C505.459,121.28,508.422,116.149,507.085,111.158z M459.98,114.094c-4.157,1.113-7.019,4.92-6.934,9.223
		c0.131,6.609-0.66,13.162-2.353,19.478c-1.709,6.379-4.293,12.461-7.679,18.076c-2.222,3.684-1.646,8.406,1.396,11.448l19.45,19.45
		l-13.893,13.893l-19.484-19.484c-3.04-3.039-7.758-3.617-11.442-1.4c-11.363,6.841-24.352,10.331-37.549,10.104
		c-4.279-0.062-8.099,2.781-9.211,6.934l-7.119,26.571l-18.979-5.086l7.122-26.582c1.113-4.154-0.75-8.534-4.515-10.613
		c-5.781-3.192-11.051-7.148-15.659-11.756c-4.638-4.639-8.611-9.934-11.809-15.737c-2.077-3.771-6.458-5.634-10.617-4.523
		l-26.605,7.129l-5.086-18.979l26.606-7.129c4.158-1.113,7.02-4.921,6.934-9.224c-0.132-6.608,0.659-13.16,2.353-19.476
		c1.71-6.38,4.294-12.463,7.679-18.078c2.222-3.684,1.646-8.406-1.396-11.448l-19.451-19.45l13.893-13.894l19.485,19.485
		c3.039,3.039,7.759,3.615,11.441,1.4c11.362-6.841,24.346-10.362,37.548-10.103c4.287,0.109,8.1-2.781,9.212-6.934l7.119-26.572
		l18.979,5.086l-7.122,26.581c-1.113,4.154,0.749,8.533,4.515,10.612c5.781,3.193,11.05,7.149,15.659,11.757
		c4.636,4.636,8.609,9.931,11.809,15.737c2.077,3.77,6.458,5.636,10.617,4.522l26.605-7.129l5.086,18.979L459.98,114.094z"/>
</g>
</svg>
