<?xml version="1.0" encoding="utf-8"?>
<!-- Generator: Adobe Illustrator 16.0.0, SVG Export Plug-In . SVG Version: 6.00 Build 0)  -->
<!DOCTYPE svg PUBLIC "-//W3C//DTD SVG 1.1//EN" "http://www.w3.org/Graphics/SVG/1.1/DTD/svg11.dtd">
<svg version="1.1" id="Capa_1" xmlns="http://www.w3.org/2000/svg" xmlns:xlink="http://www.w3.org/1999/xlink" x="0px" y="0px"
	 viewBox="0 0 595.281 419.531" enable-background="new 0 0 595.281 419.531"
	 xml:space="preserve">
<g>
	<path d="M506.517,195.904l-31.745-68.127c-1.559-3.344-4.914-5.482-8.604-5.482h-87.97c-5.241,0-9.491,4.25-9.491,9.492
		s4.25,9.492,9.491,9.492h81.921l28.302,60.738v94.499h-10.206c-4.592-30.316-30.826-53.627-62.404-53.627
		c-31.579,0-57.813,23.311-62.405,53.627H241.874c-1.021-6.736-3.121-13.117-6.1-18.982h113.951c5.241,0,9.492-4.25,9.492-9.492
		V59.895c0-5.242-4.251-9.492-9.492-9.492H97.367c-5.241,0-9.491,4.25-9.491,9.492v208.146c0,5.242,4.25,9.491,9.491,9.491h25.799
		c-2.979,5.866-5.081,12.248-6.1,18.984H97.367c-5.241,0-9.491,4.248-9.491,9.49s4.25,9.492,9.491,9.492h19.698
		c4.592,30.318,30.825,53.627,62.404,53.627c31.578,0,57.813-23.309,62.404-53.627h111.532
		c4.593,30.318,30.826,53.627,62.405,53.627c31.578,0,57.813-23.309,62.404-53.627h19.698c5.241,0,9.491-4.25,9.491-9.492V199.914
		C507.405,198.529,507.102,197.16,506.517,195.904z M106.858,69.387h233.375V258.55H221.015
		c-11.111-9.738-25.646-15.662-41.546-15.662s-30.435,5.924-41.546,15.662h-31.065V69.387z M179.469,350.144
		c-24.338,0-44.136-19.801-44.136-44.137c0-24.337,19.798-44.137,44.136-44.137s44.136,19.8,44.136,44.137
		C223.605,330.343,203.807,350.144,179.469,350.144z M415.811,350.144c-24.338,0-44.137-19.801-44.137-44.137
		c0-24.337,19.799-44.137,44.137-44.137c24.333,0,44.129,19.793,44.136,44.125c0,0.004-0.001,0.008-0.001,0.012
		s0.001,0.008,0.001,0.012C459.94,330.351,440.144,350.144,415.811,350.144z"/>
	<path d="M460.427,209.405c0.006,0,0.013,0,0.019,0c5.242,0,9.492-4.25,9.492-9.492c0-1.647-0.419-3.196-1.157-4.546l-16.307-34.996
		c-1.559-3.344-4.914-5.482-8.604-5.482H382.32c-5.241,0-9.492,4.25-9.492,9.492v35.533c0,5.242,4.251,9.492,9.492,9.492H460.427
		L460.427,209.405z M391.811,173.873h46.011l7.712,16.55h-53.723V173.873z"/>
</g>
</svg>
