<?xml version="1.0" encoding="utf-8"?>
<!-- Generator: Adobe Illustrator 16.0.0, SVG Export Plug-In . SVG Version: 6.00 Build 0)  -->
<!DOCTYPE svg PUBLIC "-//W3C//DTD SVG 1.1//EN" "http://www.w3.org/Graphics/SVG/1.1/DTD/svg11.dtd">
<svg version="1.1" id="Capa_1" xmlns="http://www.w3.org/2000/svg" xmlns:xlink="http://www.w3.org/1999/xlink" x="0px" y="0px"
	 viewBox="144.219 0 306.842 419.531" enable-background="new 144.219 0 306.842 419.531"
	 xml:space="preserve">
<g>
	<path d="M449.156,147.797l-22.219-29.027l4.746-36.25c0.544-4.149-1.767-8.148-5.634-9.748l-33.776-13.984L378.29,25.011
		c-1.6-3.867-5.594-6.175-9.748-5.634l-36.252,4.746L303.263,1.905c-3.319-2.54-7.927-2.54-11.246,0L262.99,24.124l-36.251-4.746
		c-4.147-0.542-8.147,1.767-9.748,5.634l-13.983,33.776l-33.776,13.983c-3.867,1.601-6.178,5.599-5.634,9.749l4.746,36.252
		l-22.219,29.025c-2.541,3.319-2.541,7.928,0,11.246l22.219,29.027l-4.746,36.251c-0.544,4.148,1.767,8.146,5.634,9.748
		l33.776,13.982l13.983,33.777c1.238,2.994,3.915,5.051,6.988,5.574v122.873c0,3.375,1.836,6.48,4.794,8.107
		c2.954,1.625,6.563,1.514,9.413-0.295l59.455-37.711l59.456,37.711c1.51,0.959,3.23,1.441,4.955,1.441
		c1.531,0,3.066-0.381,4.457-1.145c2.956-1.627,4.794-4.734,4.794-8.107V287.404c3.067-0.527,5.748-2.582,6.987-5.574l13.984-33.775
		l33.776-13.983c3.866-1.601,6.178-5.599,5.634-9.749l-4.746-36.251l22.219-29.027C451.696,155.726,451.696,151.116,449.156,147.797
		z M302.595,361.613c-3.025-1.918-6.886-1.918-9.911,0l-50.204,31.844V285.404l20.509-2.686l29.027,22.219
		c1.66,1.27,3.642,1.904,5.623,1.904s3.964-0.635,5.623-1.904l29.027-22.219l20.509,2.686v108.053L302.595,361.613z M409.924,179.86
		c-1.488,1.944-2.145,4.397-1.827,6.824l4.32,33.005l-30.764,12.736c-2.267,0.939-4.069,2.74-5.008,5.008l-12.737,30.764
		l-33.006-4.321c-2.426-0.316-4.88,0.34-6.823,1.827l-26.439,20.237l-26.438-20.237c-1.623-1.242-3.602-1.904-5.623-1.904
		c-0.399,0-0.801,0.025-1.201,0.077l-33.006,4.321l-12.736-30.764c-0.939-2.269-2.741-4.07-5.009-5.01l-30.763-12.736l4.32-33.004
		c0.318-2.426-0.339-4.88-1.827-6.824l-20.237-26.44l20.237-26.439c1.487-1.943,2.145-4.397,1.827-6.824l-4.32-33.005l30.764-12.734
		c2.268-0.939,4.069-2.74,5.009-5.008l12.737-30.763l33.005,4.321c2.428,0.318,4.88-0.339,6.824-1.827l26.438-20.237l26.439,20.237
		c1.943,1.488,4.398,2.146,6.823,1.827l33.007-4.321l12.736,30.763c0.938,2.268,2.74,4.069,5.008,5.008l30.764,12.737l-4.32,33.004
		c-0.318,2.427,0.338,4.88,1.827,6.824l20.237,26.439L409.924,179.86z"/>
	<path d="M241.132,93.735c2.064,0,4.144-0.688,5.864-2.101c14.222-11.673,32.207-18.102,50.645-18.102
		c5.108,0,9.251-4.142,9.251-9.251c0-5.11-4.143-9.251-9.251-9.251c-22.706,0-44.86,7.921-62.385,22.302
		c-3.949,3.242-4.522,9.071-1.281,13.02C235.803,92.582,238.457,93.735,241.132,93.735z"/>
	<path d="M330.63,60.7c-4.814-1.711-10.104,0.802-11.817,5.615c-1.713,4.813,0.801,10.104,5.614,11.816
		c31.762,11.3,53.102,41.558,53.102,75.289c0,44.051-35.837,79.888-79.888,79.888c-44.05,0-79.888-35.837-79.888-79.888
		c0-15.669,4.532-30.837,13.107-43.863c2.81-4.268,1.627-10.004-2.641-12.814c-4.267-2.809-10.004-1.628-12.813,2.64
		c-10.569,16.056-16.155,34.741-16.155,54.037c0,54.253,44.137,98.39,98.39,98.39s98.391-44.137,98.391-98.39
		C396.031,111.88,369.748,74.618,330.63,60.7z"/>
</g>
</svg>
