<?xml version="1.0" encoding="utf-8"?>
<!-- Generator: Adobe Illustrator 16.0.0, SVG Export Plug-In . SVG Version: 6.00 Build 0)  -->
<!DOCTYPE svg PUBLIC "-//W3C//DTD SVG 1.1//EN" "http://www.w3.org/Graphics/SVG/1.1/DTD/svg11.dtd">
<svg version="1.1" id="Capa_1" xmlns="http://www.w3.org/2000/svg" xmlns:xlink="http://www.w3.org/1999/xlink" x="0px" y="0px"
	 width="595.281px" height="419.531px" viewBox="0 0 595.281 419.531" enable-background="new 0 0 595.281 419.531"
	 xml:space="preserve">
<path d="M507.405,209.765c0-33.916-8.217-67.316-23.821-97.157c0.811-1.014,1.418-2.188,1.759-3.466
	c0.651-2.434,0.308-5.026-0.953-7.206c-7.869-13.6-17.199-26.244-27.74-37.756l4.503-4.503c3.706-3.707,3.706-9.717,0-13.424
	c-3.708-3.706-9.716-3.706-13.425,0l-4.499,4.499c-11.512-10.551-24.154-19.884-37.746-27.75c-3.443-1.993-7.684-1.569-10.679,0.819
	C364.96,8.217,331.557,0,297.64,0c-33.916,0-67.315,8.217-97.156,23.821c-1.014-0.811-2.189-1.417-3.468-1.759
	c-2.434-0.652-5.025-0.309-7.206,0.954c-13.6,7.869-26.243,17.199-37.756,27.74l-4.503-4.503c-3.706-3.706-9.716-3.706-13.424,0
	c-3.706,3.707-3.706,9.717,0,13.424l4.5,4.5c-10.552,11.512-19.885,24.153-27.749,37.746c-1.996,3.449-1.568,7.689,0.818,10.682
	c-15.604,29.84-23.821,63.242-23.821,97.159c0,33.916,8.217,67.317,23.82,97.157c-0.81,1.014-1.416,2.189-1.759,3.467
	c-0.65,2.434-0.308,5.025,0.954,7.207c7.869,13.6,17.199,26.242,27.74,37.756l-4.503,4.502c-3.706,3.707-3.707,9.717,0,13.424
	c1.854,1.854,4.283,2.781,6.712,2.781s4.858-0.928,6.711-2.781l4.5-4.5c11.513,10.551,24.153,19.885,37.747,27.75
	c1.482,0.857,3.112,1.27,4.728,1.27c2.139,0,4.247-0.727,5.954-2.088c29.843,15.604,63.243,23.822,97.16,23.822
	c33.915,0,67.315-8.219,97.156-23.822c1.014,0.811,2.188,1.418,3.466,1.76c0.808,0.215,1.632,0.322,2.453,0.322
	c1.654,0,3.296-0.434,4.753-1.277c13.6-7.869,26.244-17.199,37.756-27.74l4.503,4.504c1.854,1.852,4.283,2.779,6.712,2.779
	s4.857-0.928,6.712-2.779c3.706-3.707,3.706-9.717,0-13.424l-4.499-4.5c10.551-11.512,19.884-24.154,27.749-37.746
	c1.993-3.443,1.569-7.684-0.819-10.68C499.187,277.083,507.405,243.682,507.405,209.765z M467.415,296.824l-56.446-32.59
	c7.958-16.488,12.42-34.967,12.42-54.47c0-19.502-4.462-37.981-12.42-54.47l56.445-32.588
	c13.754,26.801,21.008,56.694,21.008,87.059C488.422,240.128,481.169,270.021,467.415,296.824z M297.64,316.529
	c-58.87,0-106.765-47.895-106.765-106.764S238.77,103,297.64,103s106.765,47.895,106.765,106.765S356.51,316.529,297.64,316.529z
	 M401.444,138.874c-8.837-12.9-20.013-24.076-32.913-32.913l35.547-61.571c23.573,15.208,43.703,35.345,58.923,58.945
	L401.444,138.874z M384.7,39.99l-32.589,56.447c-16.489-7.958-34.969-12.42-54.471-12.42s-37.981,4.462-54.47,12.42l-32.59-56.446
	c26.803-13.754,56.695-21.008,87.06-21.008C328.003,18.983,357.897,26.237,384.7,39.99z M191.21,44.404l35.54,61.557
	c-12.899,8.837-24.075,20.013-32.913,32.913l-61.571-35.548C147.473,79.753,167.61,59.625,191.21,44.404z M127.865,122.705
	l56.447,32.589c-7.957,16.489-12.42,34.969-12.42,54.47c0,19.502,4.462,37.981,12.42,54.469l-56.447,32.59
	c-13.753-26.803-21.007-56.695-21.007-87.059C106.858,179.4,114.112,149.507,127.865,122.705z M193.836,280.656
	c8.838,12.9,20.014,24.076,32.913,32.914l-35.548,61.57c-23.572-15.209-43.702-35.346-58.922-58.945L193.836,280.656z
	 M210.581,379.541l32.59-56.447c16.488,7.957,34.968,12.42,54.47,12.42c19.501,0,37.98-4.463,54.47-12.42l32.589,56.447
	c-26.802,13.752-56.695,21.006-87.059,21.006C267.276,400.546,237.383,393.292,210.581,379.541z M404.071,375.126l-35.54-61.557
	c12.9-8.838,24.076-20.014,32.913-32.914l61.571,35.547C447.807,339.777,427.67,359.906,404.071,375.126z"/>
</svg>
