<?xml version="1.0" encoding="utf-8"?>
<!-- Generator: Adobe Illustrator 16.0.0, SVG Export Plug-In . SVG Version: 6.00 Build 0)  -->
<!DOCTYPE svg PUBLIC "-//W3C//DTD SVG 1.1//EN" "http://www.w3.org/Graphics/SVG/1.1/DTD/svg11.dtd">
<svg version="1.1" id="Capa_1" xmlns="http://www.w3.org/2000/svg" xmlns:xlink="http://www.w3.org/1999/xlink" x="0px" y="0px"
	 width="595.281px" height="419.531px" viewBox="0 0 595.281 419.531" enable-background="new 0 0 595.281 419.531"
	 xml:space="preserve">
<g>
	<path d="M116.35,132.883h362.58c0.008,0.001,0.014,0,0.019,0c5.242,0,9.492-4.25,9.492-9.492c0-3.556-1.954-6.655-4.848-8.28
		L302.69,1.454c-3.089-1.939-7.012-1.939-10.101,0L111.3,115.354c-3.581,2.25-5.241,6.6-4.071,10.665
		C108.4,130.083,112.12,132.883,116.35,132.883z M297.64,20.701l148.341,93.198H149.3L297.64,20.701z"/>
	<path d="M497.914,353.089h-9.492v-28.477c0-5.24-4.25-9.49-9.491-9.49h-9.491V170.849h9.491c5.241,0,9.491-4.25,9.491-9.492
		s-4.25-9.491-9.491-9.491H116.35c-5.241,0-9.492,4.25-9.492,9.491s4.251,9.492,9.492,9.492h9.491v144.273h-9.491
		c-5.241,0-9.492,4.25-9.492,9.49v28.477h-9.491c-5.241,0-9.491,4.25-9.491,9.49v47.459c0,5.24,4.25,9.492,9.491,9.492h400.547
		c5.241,0,9.491-4.252,9.491-9.492V362.58C507.405,357.339,503.155,353.089,497.914,353.089z M450.456,315.123h-18.983V170.849
		h18.983V315.123z M375.155,315.123V170.849h37.334v144.273H375.155z M337.189,315.123V170.849h18.983v144.273H337.189z
		 M277.075,315.123V170.849h41.131v144.273H277.075z M239.108,315.123V170.849h18.983v144.273H239.108z M182.792,315.123V170.849
		h37.333v144.273H182.792z M144.825,170.849h18.983v144.273h-18.983V170.849z M488.422,400.546H106.858v-28.475h76.514
		c5.241,0,9.491-4.25,9.491-9.492c0-5.24-4.25-9.49-9.491-9.49h-57.53v-18.984h343.598v18.984h-253.69
		c-5.241,0-9.491,4.25-9.491,9.49c0,5.242,4.25,9.492,9.491,9.492h272.673V400.546z"/>
</g>
</svg>
