<?xml version="1.0" encoding="utf-8"?>
<!-- Generator: Adobe Illustrator 16.0.0, SVG Export Plug-In . SVG Version: 6.00 Build 0)  -->
<!DOCTYPE svg PUBLIC "-//W3C//DTD SVG 1.1//EN" "http://www.w3.org/Graphics/SVG/1.1/DTD/svg11.dtd">
<svg version="1.1" id="Capa_1" xmlns="http://www.w3.org/2000/svg" xmlns:xlink="http://www.w3.org/1999/xlink" x="0px" y="0px"
	 viewBox="156.572 0 282.136 419.531" enable-background="new 156.572 0 282.136 419.531"
	 xml:space="preserve">
<g>
	<path d="M297.64,0c-77.785,0-141.068,63.283-141.068,141.068c0,49.149,25.768,94.852,67.56,120.415l4.511,33.296
		c2.136,15.756,15.186,27.639,30.358,27.639h77.279c15.172,0,28.223-11.883,30.356-27.639l4.512-33.296
		c41.792-25.563,67.56-71.267,67.56-120.415C438.709,63.283,375.426,0,297.64,0z M357.691,247.39
		c-2.58,1.461-4.328,4.043-4.727,6.981l-5.13,37.858c-0.852,6.287-5.928,11.213-11.556,11.213h-77.278
		c-5.628,0-10.703-4.926-11.555-11.213l-5.13-37.859c-0.398-2.938-2.146-5.521-4.728-6.981
		c-38.269-21.665-62.042-62.405-62.042-106.322C175.546,73.745,230.317,18.974,297.64,18.974s122.094,54.771,122.094,122.094
		C419.734,184.985,395.961,225.726,357.691,247.39z"/>
	<path d="M347.326,333.171h-99.373c-5.239,0-9.486,4.248-9.486,9.488c0,5.238,4.247,9.486,9.486,9.486h99.373
		c5.24,0,9.487-4.248,9.487-9.486C356.813,337.419,352.566,333.171,347.326,333.171z"/>
	<path d="M335.296,362.9h-75.313c-5.239,0-9.486,4.248-9.486,9.488c0,25.994,21.148,47.143,47.143,47.143
		s47.143-21.148,47.143-47.143C344.783,367.148,340.535,362.9,335.296,362.9z M297.64,400.556c-12.205,0-22.623-7.803-26.525-18.682
		h53.051C320.262,392.753,309.845,400.556,297.64,400.556z"/>
	<path d="M357.766,146.618c0-0.176-0.001-0.353-0.011-0.528c-0.008-0.132-0.023-0.264-0.035-0.396
		c-0.018-0.17-0.034-0.34-0.061-0.507c-0.022-0.146-0.053-0.289-0.082-0.433c-0.031-0.151-0.061-0.303-0.099-0.452
		c-0.04-0.159-0.089-0.315-0.138-0.472c-0.042-0.133-0.082-0.266-0.128-0.396c-0.058-0.161-0.123-0.317-0.189-0.475
		c-0.055-0.127-0.106-0.254-0.166-0.379c-0.068-0.146-0.146-0.29-0.224-0.434c-0.073-0.135-0.146-0.27-0.226-0.4
		c-0.075-0.124-0.155-0.247-0.237-0.368c-0.098-0.147-0.198-0.292-0.305-0.433c-0.037-0.049-0.068-0.103-0.106-0.152
		c-0.045-0.057-0.095-0.105-0.14-0.162c-0.117-0.142-0.237-0.282-0.362-0.417c-0.092-0.099-0.183-0.195-0.277-0.289
		c-0.123-0.124-0.252-0.243-0.383-0.359c-0.105-0.095-0.212-0.188-0.322-0.277c-0.126-0.103-0.256-0.201-0.388-0.298
		c-0.123-0.09-0.246-0.178-0.372-0.261c-0.127-0.084-0.258-0.164-0.39-0.242c-0.14-0.083-0.279-0.162-0.422-0.237
		c-0.127-0.066-0.257-0.13-0.388-0.191c-0.155-0.073-0.313-0.142-0.473-0.207c-0.126-0.051-0.254-0.099-0.384-0.146
		c-0.17-0.061-0.342-0.116-0.515-0.166c-0.071-0.021-0.138-0.048-0.209-0.067c-0.063-0.017-0.126-0.024-0.188-0.04
		c-0.166-0.041-0.333-0.076-0.501-0.107c-0.149-0.028-0.299-0.055-0.447-0.077c-0.146-0.02-0.29-0.034-0.437-0.048
		c-0.17-0.016-0.339-0.03-0.508-0.038c-0.13-0.005-0.259-0.004-0.389-0.004c-0.18,0-0.357,0.001-0.536,0.012
		c-0.129,0.007-0.257,0.021-0.386,0.034c-0.174,0.017-0.347,0.035-0.519,0.062c-0.141,0.021-0.279,0.051-0.419,0.08
		c-0.156,0.031-0.313,0.063-0.466,0.102s-0.304,0.086-0.455,0.133c-0.139,0.042-0.277,0.084-0.413,0.134
		c-0.154,0.056-0.308,0.12-0.46,0.184c-0.132,0.056-0.264,0.111-0.394,0.172c-0.143,0.067-0.283,0.142-0.423,0.218
		c-0.138,0.075-0.275,0.15-0.41,0.231c-0.122,0.074-0.241,0.152-0.36,0.231c-0.149,0.099-0.296,0.201-0.438,0.309
		c-0.05,0.037-0.102,0.067-0.15,0.105l-19.479,15.243l-19.479-15.243c-3.435-2.688-8.259-2.688-11.693,0l-19.475,15.243
		l-19.478-15.243c-0.049-0.039-0.101-0.069-0.151-0.107c-0.142-0.106-0.285-0.207-0.433-0.305c-0.121-0.082-0.243-0.161-0.367-0.236
		c-0.132-0.08-0.267-0.153-0.401-0.226c-0.144-0.078-0.286-0.154-0.433-0.223c-0.125-0.06-0.252-0.113-0.38-0.166
		c-0.157-0.066-0.314-0.132-0.474-0.19c-0.131-0.047-0.265-0.087-0.397-0.129c-0.156-0.048-0.313-0.098-0.47-0.138
		c-0.15-0.038-0.301-0.068-0.452-0.099c-0.144-0.029-0.287-0.06-0.431-0.082c-0.168-0.027-0.339-0.043-0.509-0.06
		c-0.132-0.013-0.263-0.028-0.395-0.035c-0.176-0.011-0.352-0.012-0.528-0.012c-0.133,0-0.265-0.001-0.396,0.004
		c-0.167,0.007-0.334,0.021-0.502,0.037c-0.148,0.013-0.296,0.028-0.441,0.048c-0.149,0.021-0.297,0.047-0.446,0.076
		c-0.168,0.031-0.336,0.066-0.502,0.107c-0.063,0.015-0.125,0.023-0.188,0.04c-0.072,0.019-0.139,0.046-0.21,0.067
		c-0.172,0.05-0.343,0.105-0.513,0.166c-0.13,0.046-0.259,0.094-0.387,0.146c-0.158,0.063-0.314,0.133-0.47,0.206
		c-0.132,0.062-0.262,0.125-0.389,0.192c-0.142,0.075-0.282,0.154-0.421,0.237c-0.132,0.078-0.262,0.158-0.389,0.242
		c-0.127,0.083-0.251,0.172-0.373,0.262c-0.131,0.096-0.26,0.193-0.386,0.296c-0.11,0.09-0.219,0.185-0.326,0.281
		c-0.129,0.115-0.254,0.232-0.376,0.354c-0.097,0.096-0.19,0.194-0.283,0.295c-0.122,0.134-0.241,0.27-0.354,0.41
		c-0.047,0.057-0.098,0.107-0.144,0.165c-0.04,0.05-0.071,0.104-0.11,0.155c-0.104,0.139-0.202,0.28-0.298,0.423
		c-0.083,0.125-0.165,0.25-0.241,0.376c-0.078,0.128-0.149,0.26-0.221,0.392c-0.078,0.146-0.157,0.293-0.228,0.442
		c-0.058,0.122-0.109,0.246-0.162,0.37c-0.067,0.16-0.135,0.32-0.193,0.482c-0.047,0.128-0.086,0.259-0.126,0.389
		c-0.05,0.158-0.099,0.316-0.14,0.478c-0.038,0.147-0.067,0.297-0.098,0.446c-0.029,0.145-0.061,0.29-0.083,0.437
		c-0.025,0.167-0.043,0.336-0.06,0.504c-0.014,0.133-0.028,0.265-0.036,0.397c-0.011,0.175-0.012,0.351-0.012,0.528
		c0,0.133-0.001,0.265,0.004,0.396c0.007,0.167,0.022,0.335,0.037,0.503c0.014,0.147,0.027,0.293,0.049,0.44
		c0.021,0.149,0.047,0.298,0.075,0.447c0.031,0.168,0.066,0.335,0.107,0.501c0.016,0.063,0.023,0.125,0.04,0.188l36.513,136.56
		c1.134,4.242,4.968,7.039,9.158,7.039c0.811,0,1.637-0.105,2.456-0.325c5.062-1.354,8.068-6.554,6.715-11.616L263.482,171.59
		l2.984,2.336c1.718,1.344,3.782,2.016,5.848,2.016c2.064,0,4.129-0.671,5.848-2.016l19.475-15.243l19.479,15.243
		c3.435,2.688,8.259,2.688,11.693,0l2.987-2.337l-29.186,109.158c-1.354,5.061,1.653,10.262,6.715,11.615
		c0.821,0.219,1.646,0.324,2.456,0.324c4.19,0,8.025-2.797,9.159-7.038l36.513-136.56c0.017-0.062,0.024-0.125,0.039-0.187
		c0.041-0.168,0.076-0.336,0.108-0.505c0.028-0.148,0.056-0.296,0.076-0.444c0.021-0.147,0.035-0.294,0.048-0.442
		c0.017-0.168,0.03-0.335,0.037-0.502C357.768,146.882,357.767,146.75,357.766,146.618z"/>
</g>
</svg>
