<?xml version="1.0" encoding="utf-8"?>
<!-- Generator: Adobe Illustrator 16.0.0, SVG Export Plug-In . SVG Version: 6.00 Build 0)  -->
<!DOCTYPE svg PUBLIC "-//W3C//DTD SVG 1.1//EN" "http://www.w3.org/Graphics/SVG/1.1/DTD/svg11.dtd">
<svg version="1.1" id="Capa_1" xmlns="http://www.w3.org/2000/svg" xmlns:xlink="http://www.w3.org/1999/xlink" x="0px" y="0px"
	 viewBox="116.341 0 362.6 419.531" enable-background="new 116.341 0 362.6 419.531"
	 xml:space="preserve">
<path d="M478.92,180.668C478.584,80.989,397.387,0,297.631,0c-99.962,0-181.286,81.323-181.29,181.284
	c0,0.057,0.006,0.114,0.007,0.171c0.004,0.233,0.014,0.465,0.035,0.694c0.009,0.088,0.021,0.176,0.032,0.264
	c0.023,0.198,0.051,0.396,0.086,0.59c0.018,0.093,0.037,0.185,0.058,0.278c0.04,0.19,0.086,0.377,0.139,0.562
	c0.025,0.092,0.051,0.183,0.079,0.275c0.059,0.189,0.125,0.374,0.195,0.557c0.032,0.083,0.062,0.168,0.096,0.251
	c0.098,0.236,0.205,0.468,0.321,0.695c0.046,0.089,0.097,0.176,0.146,0.264c0.094,0.169,0.189,0.337,0.293,0.5
	c0.068,0.107,0.143,0.211,0.216,0.317c0.087,0.126,0.177,0.25,0.271,0.372c0.079,0.104,0.161,0.206,0.245,0.307
	c0.106,0.127,0.219,0.25,0.332,0.372c0.077,0.083,0.153,0.169,0.235,0.25c0.197,0.197,0.403,0.389,0.618,0.569
	c0.031,0.026,0.064,0.048,0.096,0.074c0.199,0.162,0.406,0.316,0.619,0.463c0.026,0.019,0.052,0.04,0.078,0.059l146.786,98.643
	c-3.672,1.311-6.305,4.809-6.305,8.932v18.982h-24.53c-5.242,0-9.491,4.25-9.491,9.492v84.82c0,5.24,4.249,9.492,9.491,9.492
	h122.283c5.241,0,9.491-4.252,9.491-9.492v-84.82c0-5.242-4.25-9.492-9.491-9.492h-24.531v-18.982c0-4.121-2.632-7.62-6.304-8.932
	l146.666-98.563c2.606-1.692,4.337-4.621,4.337-7.959C478.94,181.081,478.933,180.874,478.92,180.668z M263.969,22.498
	c-5.878,8.898-11.189,20.372-15.836,34.31c-9.258,27.775-15.053,63.039-16.741,101.096c-13.63-10.74-30.615-16.78-48.462-16.78
	c-16.571,0-32.47,5.319-45.634,14.853C147.747,89.52,198.677,36.324,263.969,22.498z M139.64,179.134
	c11.219-12.047,26.824-19.026,43.289-19.026c19.875,0,38.345,9.89,49.404,26.452c0.044,0.065,0.097,0.123,0.143,0.187l40.753,82.162
	L139.64,179.134z M297.631,275.382l-46.252-93.247c11.234-13.883,28.111-22.028,46.147-22.028c18.105,0,35.041,8.208,46.274,22.189
	L297.631,275.382z M315.259,306.236v9.49h-35.255v-9.49H315.259z M349.28,400.546H245.981v-27.869H349.28V400.546z M349.28,334.71
	v18.982H245.981V334.71H349.28z M322.033,268.908l41.25-83.165c11.117-16.067,29.296-25.634,48.842-25.634
	c16.687,0,32.378,6.97,43.53,19.003L322.033,268.908z M412.125,141.125c-17.764,0-34.671,5.985-48.269,16.632
	c-1.111-24.698-3.962-48.443-8.414-69.697c-1.074-5.129-6.099-8.42-11.236-7.343c-5.13,1.074-8.418,6.105-7.343,11.236
	c4.152,19.82,6.847,41.972,7.959,65.077c-13.429-10.184-29.949-15.907-47.296-15.907c-17.265,0-33.708,5.671-47.103,15.763
	c4.037-86.049,28.927-137.904,47.207-137.904c10.255,0,22.188,16.403,31.146,42.81c1.342,3.954,5.033,6.446,8.988,6.446
	c1.011,0,2.038-0.164,3.05-0.506c4.964-1.683,7.623-7.073,5.939-12.038c-4.56-13.443-9.752-24.54-15.479-33.201
	c65.28,13.816,116.207,66.986,126.682,133.422C444.802,146.421,428.842,141.125,412.125,141.125z"/>
</svg>
