<?xml version="1.0" encoding="utf-8"?>
<!-- Generator: Adobe Illustrator 16.0.0, SVG Export Plug-In . SVG Version: 6.00 Build 0)  -->
<!DOCTYPE svg PUBLIC "-//W3C//DTD SVG 1.1//EN" "http://www.w3.org/Graphics/SVG/1.1/DTD/svg11.dtd">
<svg version="1.1" id="Capa_1" xmlns="http://www.w3.org/2000/svg" xmlns:xlink="http://www.w3.org/1999/xlink" x="0px" y="0px"
	 viewBox="0 0 595.281 419.531" enable-background="new 0 0 595.281 419.531"
	 xml:space="preserve">
<g>
	<path d="M382.602,182.584V49.907c0-15.379-12.513-27.892-27.892-27.892H115.767c-15.38,0-27.892,12.513-27.892,27.892v132.677
		c0,15.38,12.512,27.892,27.892,27.892h238.943C370.09,210.476,382.602,197.964,382.602,182.584z M106.47,182.584V49.907
		c0-5.126,4.17-9.297,9.297-9.297h238.943c5.126,0,9.297,4.171,9.297,9.297v132.677c0,5.126-4.171,9.297-9.297,9.297H115.767
		C110.64,191.881,106.47,187.709,106.47,182.584z"/>
	<path d="M503.675,236.21L437.337,121.31c-7.95-13.77-21.445-19.825-31.394-14.082l-9.395,5.423
		c-4.447,2.567-5.971,8.253-3.403,12.7c2.567,4.446,8.253,5.969,12.7,3.403l8.575-4.951c1.295,0.48,4.306,2.463,6.813,6.803
		l28.087,48.648l-48.822,28.187c-4.446,2.568-5.971,8.253-3.402,12.7c1.722,2.983,4.847,4.651,8.06,4.651
		c1.577,0,3.176-0.403,4.641-1.248l48.821-28.187l8.314,14.399L243.896,338.525l-8.313-14.398l146.747-84.725
		c4.447-2.568,5.971-8.254,3.403-12.701c-2.568-4.447-8.255-5.971-12.7-3.402l-146.747,84.725l-28.087-48.648
		c-1.231-2.133-1.554-4.635-0.907-7.049c0.646-2.412,2.177-4.42,4.31-5.65l16.546-9.553c4.447-2.566,5.971-8.254,3.404-12.7
		c-2.569-4.447-8.254-5.971-12.7-3.403l-16.548,9.553c-6.434,3.714-11.042,9.731-12.975,16.942
		c-1.932,7.211-0.949,14.726,2.766,21.159l32.732,56.695c0.001,0,0.001,0.002,0.002,0.004l0.002,0.002l17.606,30.496
		c0.001,0.002,0.002,0.002,0.002,0.004c0.001,0.002,0.002,0.002,0.002,0.004l15.989,27.695c3.716,6.436,9.732,11.041,16.942,12.975
		c2.416,0.646,4.865,0.969,7.297,0.967c4.827,0,9.584-1.26,13.863-3.732l206.93-119.471
		C506.784,266.623,511.364,249.53,503.675,236.21z M488.477,252.558c-0.646,2.412-2.177,4.42-4.31,5.65L277.237,377.681
		c-2.134,1.23-4.637,1.551-7.049,0.906c-2.413-0.646-4.421-2.178-5.652-4.311l-11.344-19.646l223.034-128.77l11.344,19.646
		C488.802,247.64,489.124,250.144,488.477,252.558z"/>
	<path d="M336.116,154.692h-46.109c-5.135,0-9.297,4.163-9.297,9.297c0,5.134,4.162,9.297,9.297,9.297h46.109
		c5.135,0,9.297-4.164,9.297-9.297C345.413,158.855,341.251,154.692,336.116,154.692z"/>
	<path d="M258.293,154.692h-46.108c-5.135,0-9.298,4.163-9.298,9.297c0,5.134,4.163,9.297,9.298,9.297h46.108
		c5.135,0,9.297-4.164,9.297-9.297C267.59,158.855,263.427,154.692,258.293,154.692z"/>
	<path d="M180.47,154.692h-46.108c-5.135,0-9.297,4.163-9.297,9.297c0,5.134,4.162,9.297,9.297,9.297h46.108
		c5.135,0,9.298-4.164,9.298-9.297C189.768,158.855,185.605,154.692,180.47,154.692z"/>
	<path d="M174.065,59.205h-21.108c-15.38,0-27.892,12.512-27.892,27.892v21.108c0,15.379,12.512,27.892,27.892,27.892h21.108
		c15.379,0,27.892-12.513,27.892-27.892V87.097C201.957,71.717,189.444,59.205,174.065,59.205z M183.362,108.205
		c0,5.126-4.171,9.297-9.297,9.297h-21.108c-5.126,0-9.297-4.171-9.297-9.297V87.097c0-5.127,4.171-9.297,9.297-9.297h21.108
		c5.126,0,9.297,4.17,9.297,9.297V108.205z"/>
</g>
</svg>
