<?xml version="1.0" encoding="utf-8"?>
<!-- Generator: Adobe Illustrator 16.0.0, SVG Export Plug-In . SVG Version: 6.00 Build 0)  -->
<!DOCTYPE svg PUBLIC "-//W3C//DTD SVG 1.1//EN" "http://www.w3.org/Graphics/SVG/1.1/DTD/svg11.dtd">
<svg version="1.1" id="Capa_1" xmlns="http://www.w3.org/2000/svg" xmlns:xlink="http://www.w3.org/1999/xlink" x="0px" y="0px"
	 width="595.281px" height="419.531px" viewBox="0 0 595.281 419.531" enable-background="new 0 0 595.281 419.531"
	 xml:space="preserve">
<path d="M298.343,148.832c-3.841-3.839-10.064-3.839-13.906,0L170.324,262.944c-3.84,3.839-3.84,10.065,0,13.905
	c1.92,1.92,4.437,2.881,6.952,2.881c2.517,0,5.032-0.961,6.952-2.881l114.113-114.112
	C302.181,158.897,302.181,152.672,298.343,148.832z"/>
<path d="M305.008,248.723l-74.453,74.452c-3.84,3.84-3.84,10.064,0,13.906c1.92,1.918,4.437,2.879,6.952,2.879
	c2.517,0,5.032-0.961,6.953-2.879l74.452-74.453c3.84-3.839,3.84-10.064,0-13.905S308.848,244.882,305.008,248.723z"/>
<path d="M504.525,2.88c-3.84-3.839-10.064-3.839-13.905,0l-69.665,69.666l-28.946-28.947c-3.84-3.838-10.063-3.839-13.906,0
	c-8.668,8.668-20.193,13.443-32.453,13.443c-12.259,0-23.783-4.773-32.452-13.442c-1.844-1.843-4.345-2.88-6.953-2.88
	c-2.607,0-5.107,1.037-6.952,2.88L90.755,252.135c-1.843,1.843-2.879,4.345-2.879,6.952s1.036,5.109,2.879,6.953l150.61,150.609
	c1.92,1.92,4.437,2.881,6.952,2.881c2.517,0,5.032-0.961,6.953-2.881l208.538-208.537c1.843-1.844,2.88-4.345,2.88-6.953
	s-1.037-5.109-2.88-6.952c-8.669-8.668-13.443-20.195-13.443-32.453c0-12.259,4.773-23.784,13.443-32.454
	c1.843-1.843,2.88-4.345,2.88-6.952s-1.037-5.109-2.88-6.953l-28.946-28.946l69.664-69.665
	C508.365,12.945,508.365,6.719,504.525,2.88z M443.464,122.863c-8.286,11.2-12.763,24.702-12.763,38.892s4.478,27.69,12.763,38.891
	L248.317,395.792L111.613,259.087L306.76,63.94c11.2,8.287,24.701,12.764,38.891,12.764c14.19,0,27.691-4.478,38.892-12.764
	l22.509,22.509l-19.06,19.059c-12.56-6.618-28.502-4.651-39.059,5.904c-6.285,6.285-9.746,14.641-9.746,23.53
	c0,8.889,3.462,17.245,9.746,23.529c12.974,12.973,34.083,12.974,47.06,0c6.284-6.285,9.745-14.641,9.745-23.529
	c0-5.506-1.328-10.807-3.831-15.538l19.05-19.05L443.464,122.863z M370.844,136.56c3.841,3.84,10.064,3.84,13.906,0l1.32-1.32
	c-0.075,3.525-1.483,6.828-3.984,9.328c-5.306,5.309-13.943,5.307-19.249,0c-2.57-2.57-3.986-5.989-3.986-9.625
	c0-3.635,1.415-7.054,3.986-9.624c2.501-2.5,5.803-3.908,9.326-3.984l-1.319,1.319C367.005,126.494,367.005,132.72,370.844,136.56z"
	/>
<path d="M314.552,178.948L200.439,293.06c-3.84,3.84-3.84,10.064,0,13.904c1.92,1.92,4.437,2.881,6.952,2.881
	c2.517,0,5.032-0.961,6.952-2.881l114.113-114.111c3.839-3.84,3.839-10.065,0-13.906
	C324.616,175.109,318.392,175.109,314.552,178.948z"/>
</svg>
