<?xml version="1.0" encoding="utf-8"?>
<!-- Generator: Adobe Illustrator 16.0.0, SVG Export Plug-In . SVG Version: 6.00 Build 0)  -->
<!DOCTYPE svg PUBLIC "-//W3C//DTD SVG 1.1//EN" "http://www.w3.org/Graphics/SVG/1.1/DTD/svg11.dtd">
<svg version="1.1" id="Capa_1" xmlns="http://www.w3.org/2000/svg" xmlns:xlink="http://www.w3.org/1999/xlink" x="0px" y="0px"
	 viewBox="87.876 0 419.529 419.531" enable-background="new 87.876 0 419.529 419.531"
	 xml:space="preserve">
<g>
	<path d="M140.31,319.291c3.707-3.707,3.707-9.717,0-13.426c-3.707-3.705-9.718-3.705-13.426,0l-36.229,36.232
		c-3.707,3.707-3.707,9.717,0,13.426c1.853,1.852,4.283,2.779,6.712,2.779c2.43,0,4.859-0.928,6.712-2.779L140.31,319.291z"/>
	<path d="M379.222,65.148c-8.418,8.419-13.054,19.612-13.054,31.517c0,11.906,4.636,23.099,13.054,31.517
		c8.688,8.688,20.104,13.032,31.517,13.032c11.415,0,22.828-4.344,31.517-13.032c8.419-8.418,13.055-19.611,13.055-31.517
		c0-11.905-4.637-23.098-13.055-31.517C424.879,47.771,396.602,47.771,379.222,65.148z M428.831,114.757
		c-9.976,9.978-26.207,9.977-36.184,0c-4.833-4.833-7.493-11.256-7.493-18.092c0-6.834,2.661-13.259,7.493-18.092
		c4.988-4.988,11.539-7.482,18.092-7.482c6.552,0,13.105,2.495,18.092,7.482c4.833,4.833,7.495,11.258,7.495,18.092
		C436.326,103.5,433.664,109.924,428.831,114.757z"/>
	<path d="M170.249,335.804c-3.707-3.707-9.718-3.707-13.425,0l-50.82,50.82c-3.707,3.707-3.707,9.719,0,13.426
		c1.854,1.854,4.283,2.781,6.712,2.781c2.43,0,4.859-0.928,6.713-2.781l50.82-50.82
		C173.956,345.521,173.956,339.511,170.249,335.804z"/>
	<path d="M501.361,12.653c-0.891-3.21-3.399-5.717-6.607-6.609c-34.597-9.602-72.07-7.733-108.371,5.399
		c-28.128,10.177-55.483,27.238-75.054,46.809L281.81,87.771l-106.939,16.704c-1.988,0.311-3.825,1.245-5.248,2.667l-68.396,68.396
		c-2.663,2.665-3.5,6.65-2.133,10.16c1.368,3.51,4.683,5.878,8.446,6.037l67.468,2.837l-16.91,16.91
		c-3.706,3.706-3.706,9.717,0,13.425l9.87,9.868L138.49,279.96c-2.453,3.76-1.938,8.723,1.237,11.898l75.819,75.818
		c3.176,3.174,8.14,3.693,11.9,1.238l45.183-29.479l9.869,9.869c3.707,3.707,9.718,3.707,13.426,0l16.91-16.91l2.837,67.467
		c0.158,3.764,2.527,7.078,6.036,8.445c1.12,0.438,2.288,0.648,3.446,0.648c2.472,0,4.9-0.967,6.714-2.779l68.396-68.396
		c1.423-1.424,2.356-3.262,2.667-5.248l16.706-106.938l29.518-29.519c19.57-19.57,36.632-46.927,46.809-75.054
		C509.095,84.723,510.963,47.248,501.361,12.653z M223.524,348.804L158.6,283.88l23.087-35.387l31.899,31.898l-3.752,3.752
		c-3.707,3.707-3.707,9.718,0,13.426c3.707,3.705,9.718,3.705,13.426,0l3.752-3.752l31.899,31.9L223.524,348.804z M435.728,182.652
		l-31.707,31.707c-0.004,0.004-0.007,0.008-0.011,0.012l-32.991,32.991c-3.707,3.707-3.707,9.718,0,13.426
		c3.707,3.706,9.718,3.706,13.426,0l12.418-12.419l-12.212,78.178l-50.92,50.92l-2.661-63.305l26.525-26.525
		c3.707-3.707,3.707-9.717,0-13.426c-3.707-3.705-9.718-3.705-13.426,0l-29.447,29.447c-0.017,0.018-0.031,0.031-0.048,0.049
		l-25.463,25.461l-8.465-8.463c-0.097-0.1-0.193-0.199-0.294-0.295l-40.017-40.018l114.81-114.808c3.707-3.707,3.708-9.718,0-13.426
		c-3.706-3.705-9.717-3.706-13.425,0l-114.81,114.811l-40.019-40.019c-0.095-0.1-0.192-0.195-0.292-0.291l-8.464-8.467L203.7,192.73
		c0.017-0.015,0.031-0.03,0.047-0.046l29.447-29.447c3.708-3.707,3.708-9.718,0-13.426c-3.706-3.706-9.718-3.706-13.425,0
		l-26.525,26.525l-63.304-2.663l50.919-50.919l78.177-12.211l-12.418,12.417l13.425,13.425l32.891-32.891
		c0.071-0.069,0.143-0.14,0.212-0.212l31.607-31.607c26.416-26.416,89.141-65.555,159.671-48.695
		C501.283,93.512,462.144,156.237,435.728,182.652z"/>
	<path d="M188.114,367.095l-36.23,36.23c-3.707,3.705-3.707,9.717,0,13.424c1.854,1.854,4.283,2.781,6.713,2.781
		c2.429,0,4.859-0.928,6.712-2.781l36.23-36.229c3.707-3.707,3.707-9.719,0-13.426C197.833,363.388,191.822,363.388,188.114,367.095
		z"/>
</g>
</svg>
