<?xml version="1.0" encoding="utf-8"?>
<!-- Generator: Adobe Illustrator 16.0.0, SVG Export Plug-In . SVG Version: 6.00 Build 0)  -->
<!DOCTYPE svg PUBLIC "-//W3C//DTD SVG 1.1//EN" "http://www.w3.org/Graphics/SVG/1.1/DTD/svg11.dtd">
<svg version="1.1" id="Capa_1" xmlns="http://www.w3.org/2000/svg" xmlns:xlink="http://www.w3.org/1999/xlink" x="0px" y="0px"
	 viewBox="87.876 0 419.529 419.531" enable-background="new 87.876 0 419.529 419.531"
	 xml:space="preserve">
<g>
	<path d="M460.256,47.149C429.851,16.746,389.426,0,346.427,0C257.665,0.001,185.45,72.215,185.45,160.978
		c0,39.827,14.376,77.438,40.654,106.932l-26.983,26.982l-6.695-6.695c-1.775-1.775-4.185-2.773-6.696-2.773
		c-2.511,0-4.92,0.998-6.695,2.773l-88.385,88.385c-3.698,3.697-3.698,9.693,0,13.393l26.782,26.781
		c1.85,1.85,4.272,2.773,6.696,2.773c2.423,0,4.847-0.924,6.695-2.773l88.384-88.383c3.698-3.697,3.698-9.693,0-13.393l-6.695-6.695
		l26.983-26.983c29.493,26.278,67.106,40.653,106.933,40.653c88.763,0,160.977-72.215,160.978-160.977
		C507.404,117.979,490.66,77.554,460.256,47.149z M124.128,396.667l-13.392-13.391l74.992-74.992l6.689,6.688
		c0.002,0.002,0.004,0.006,0.007,0.008c0.003,0.004,0.005,0.004,0.008,0.008l6.688,6.688L124.128,396.667z M346.427,303.017
		c-37.94,0-73.609-14.775-100.437-41.604c-26.827-26.826-41.603-62.496-41.604-100.436c0.001-78.319,63.72-142.038,142.039-142.039
		c37.939,0,73.609,14.775,100.438,41.603c26.827,26.827,41.602,62.497,41.602,100.436
		C488.466,239.296,424.747,303.015,346.427,303.017z"/>
	<path d="M346.427,37.877c-67.877,0-123.101,55.222-123.101,123.101s55.224,123.1,123.101,123.1
		c67.878,0,123.101-55.222,123.101-123.1S414.305,37.877,346.427,37.877z M346.427,265.139
		c-57.435,0-104.162-46.728-104.162-104.162c0-57.435,46.728-104.162,104.162-104.162S450.59,103.542,450.59,160.978
		C450.59,218.412,403.862,265.139,346.427,265.139z"/>
	<path d="M393.273,100.74l-58.634,58.633c-3.697,3.698-3.697,9.694,0,13.393c1.85,1.849,4.272,2.773,6.695,2.773
		c2.424,0,4.848-0.925,6.696-2.773l58.634-58.634c3.697-3.698,3.697-9.693,0-13.392C402.967,97.043,396.97,97.043,393.273,100.74z"
		/>
	<path d="M311.799,182.213l-25.608,25.61c-3.698,3.698-3.698,9.694,0,13.393c1.849,1.849,4.272,2.773,6.695,2.773
		s4.848-0.925,6.696-2.773l25.608-25.61c3.697-3.698,3.697-9.694,0-13.393C321.492,178.517,315.497,178.517,311.799,182.213z"/>
	<path d="M361.459,78.988c-3.697-3.697-9.693-3.697-13.392,0l-83.629,83.629c-3.698,3.698-3.698,9.693,0,13.392
		c1.85,1.849,4.272,2.773,6.695,2.773c2.424,0,4.848-0.925,6.696-2.773l83.628-83.628C365.157,88.683,365.157,82.687,361.459,78.988
		z"/>
</g>
</svg>
