<?xml version="1.0" encoding="utf-8"?>
<!-- Generator: Adobe Illustrator 16.0.0, SVG Export Plug-In . SVG Version: 6.00 Build 0)  -->
<!DOCTYPE svg PUBLIC "-//W3C//DTD SVG 1.1//EN" "http://www.w3.org/Graphics/SVG/1.1/DTD/svg11.dtd">
<svg version="1.1" id="Capa_1" xmlns="http://www.w3.org/2000/svg" xmlns:xlink="http://www.w3.org/1999/xlink" x="0px" y="0px"
	 viewBox="102.336 0 390.608 419.531" enable-background="new 102.336 0 390.608 419.531"
	 xml:space="preserve">
<g>
	<path d="M112.353,216.163c0.008,0.073,0.022,0.146,0.031,0.22c0.025,0.207,0.052,0.412,0.092,0.615
		c0.013,0.063,0.031,0.124,0.045,0.188c0.047,0.211,0.096,0.422,0.159,0.632c0.014,0.044,0.031,0.088,0.046,0.132
		c0.071,0.224,0.147,0.445,0.237,0.662c0.013,0.031,0.028,0.061,0.041,0.09c0.097,0.227,0.2,0.451,0.317,0.672
		c0.018,0.033,0.04,0.066,0.059,0.1c0.116,0.21,0.236,0.418,0.372,0.619c0.055,0.084,0.119,0.162,0.178,0.242
		c0.105,0.146,0.207,0.295,0.323,0.436c0.182,0.224,0.374,0.438,0.579,0.643l41.758,41.758c1.682,1.681,3.886,2.521,6.09,2.521
		c2.203,0,4.408-0.841,6.089-2.521c3.362-3.363,3.362-8.816,0-12.18L133.1,215.322l32.808-32.808
		c1.615-1.616,2.522-3.806,2.522-6.089s-0.907-4.474-2.522-6.089l-32.807-32.808L249.84,20.791l68.246,68.246
		c3.364,3.362,8.816,3.363,12.18,0c3.362-3.363,3.362-8.816,0-12.179L255.929,2.522C254.313,0.908,252.124,0,249.84,0
		s-4.475,0.908-6.089,2.522L114.834,131.438c-0.203,0.204-0.396,0.417-0.576,0.637c-0.15,0.184-0.286,0.375-0.419,0.567
		c-0.026,0.038-0.057,0.072-0.082,0.111c-0.15,0.225-0.287,0.457-0.414,0.692c-0.005,0.01-0.013,0.018-0.017,0.028
		c-0.127,0.237-0.239,0.478-0.342,0.724c-0.005,0.013-0.012,0.025-0.018,0.037c-0.095,0.23-0.176,0.465-0.251,0.701
		c-0.011,0.032-0.023,0.063-0.033,0.095c-0.066,0.219-0.117,0.441-0.166,0.664c-0.011,0.053-0.027,0.104-0.038,0.157
		c-0.042,0.213-0.069,0.426-0.096,0.641c-0.007,0.065-0.021,0.129-0.028,0.195c-0.027,0.28-0.041,0.561-0.041,0.841v77.794
		c0,0.008,0.001,0.015,0.001,0.021C112.313,215.617,112.326,215.89,112.353,216.163z M129.535,194.531v-36.213l18.106,18.107
		L129.535,194.531z"/>
	<path d="M353.434,188.796c1.682,1.681,3.885,2.522,6.089,2.522s4.407-0.841,6.089-2.522l85.698-85.697
		c16.945-16.947,16.945-44.519,0-61.465c-8.199-8.198-19.112-12.713-30.733-12.713c-11.62,0-22.534,4.515-30.733,12.713
		l-85.697,85.697c-3.363,3.363-3.363,8.816,0,12.18l0.229,0.229L145.929,298.187c-24.445,24.445-34.882,49.184-28.34,64.988
		l-12.731,12.732c-3.363,3.363-3.363,8.816,0,12.18c1.682,1.682,3.886,2.521,6.089,2.521c2.204,0,4.409-0.84,6.09-2.521
		l12.75-12.752c2.791,1.156,6.229,1.965,10.416,1.965c4.348,0,9.493-0.867,15.533-3.107c12.318-4.57,25.811-13.969,39.021-27.178
		l158.447-158.448L353.434,188.796z M402.024,53.813c4.944-4.945,11.534-7.668,18.554-7.668s13.609,2.724,18.554,7.668
		c10.23,10.23,10.23,26.877,0,37.107l-79.607,79.608l-0.213-0.213c-0.005-0.006-0.011-0.012-0.016-0.017
		c-0.005-0.005-0.012-0.01-0.017-0.016l-12.219-12.219l82.021-82.021c3.363-3.363,3.363-8.816,0-12.18
		c-3.363-3.362-8.814-3.362-12.18,0l-82.021,82.021l-12.227-12.227c-0.002-0.003-0.005-0.006-0.008-0.009
		c-0.002-0.002-0.006-0.005-0.009-0.008l-0.22-0.22L402.024,53.813z M149.746,358.044c-7.02,2.604-12.666,2.703-15.107,0.262
		c-4.662-4.662-0.702-21.209,17.552-41.68l24.126,24.127C167.044,349.017,157.798,355.058,149.746,358.044z M188.668,328.746
		l-24.47-24.469l152.357-152.358l6.146,6.146l-5.646,5.646c-3.363,3.363-3.363,8.816,0,12.18c1.682,1.681,3.885,2.522,6.089,2.522
		s4.407-0.841,6.089-2.522l5.646-5.646l6.145,6.145L188.668,328.746z"/>
	<path d="M490.423,237.016l-74.336-74.335c-3.363-3.362-8.814-3.362-12.18,0c-3.362,3.363-3.362,8.815,0,12.179l68.247,68.247
		L316.52,398.74l-74.565-74.566c-3.362-3.361-8.815-3.361-12.18,0c-3.362,3.363-3.362,8.816,0,12.18l80.655,80.654
		c1.682,1.682,3.885,2.521,6.089,2.521s4.407-0.84,6.089-2.521l167.813-167.813C493.785,245.832,493.785,240.378,490.423,237.016z"
		/>
</g>
</svg>
