<?xml version="1.0" encoding="utf-8"?>
<!-- Generator: Adobe Illustrator 16.0.0, SVG Export Plug-In . SVG Version: 6.00 Build 0)  -->
<!DOCTYPE svg PUBLIC "-//W3C//DTD SVG 1.1//EN" "http://www.w3.org/Graphics/SVG/1.1/DTD/svg11.dtd">
<svg version="1.1" id="Capa_1" xmlns="http://www.w3.org/2000/svg" xmlns:xlink="http://www.w3.org/1999/xlink" x="0px" y="0px"
	 width="595.281px" height="419.531px" viewBox="0 0 595.281 419.531" enable-background="new 0 0 595.281 419.531"
	 xml:space="preserve">
<g>
	<path d="M288.568,423.694l0.001,28.216c0,4.074,3.303,7.377,7.377,7.377c2.037,0.002,3.882-0.824,5.217-2.159
		c1.334-1.335,2.161-3.181,2.16-5.218v-28.216c-0.001-4.074-3.304-7.377-7.378-7.378
		C291.873,416.317,288.571,419.62,288.568,423.694z"/>
	<path d="M338.253,415.265l12.04,25.518c1.738,3.686,6.135,5.264,9.819,3.525c1.844-0.868,3.16-2.403,3.798-4.18
		c0.637-1.776,0.598-3.799-0.272-5.641l-12.038-25.519c-1.74-3.685-6.136-5.262-9.82-3.524
		C338.094,407.183,336.517,411.579,338.253,415.265z"/>
	<path d="M251.114,406.445c-3.685-1.737-8.08-0.16-9.82,3.524l-12.038,25.519c-0.87,1.842-0.909,3.864-0.272,5.641
		c0.638,1.776,1.954,3.312,3.798,4.18c3.685,1.738,8.081,0.16,9.819-3.525l12.04-25.518
		C256.375,412.579,254.798,408.183,251.114,406.445z"/>
</g>
<path d="M313.614-10c-1.938,0-3.693,0.785-4.965,2.057c-1.27,1.27-2.055,3.025-2.055,4.965c-0.002,3.877,3.143,7.02,7.02,7.02h5.453
	l0.006,9.461c0.006,6.039-2.344,11.717-6.619,15.992c-4.164,4.164-9.666,6.5-15.542,6.623c-0.342-0.023-0.688-0.029-1.033-0.002
	c-5.828-0.139-11.289-2.469-15.432-6.611c-4.275-4.275-6.629-9.953-6.627-15.984l0.008-9.479h16.523c3.877,0,7.021-3.145,7.021-7.02
	c0.002-3.879-3.144-7.021-7.021-7.021h-30.563l-0.01,23.51c-0.004,9.789,3.809,18.994,10.738,25.924
	c5.584,5.584,12.65,9.141,20.305,10.311c14.03-0.547,0,0,14.03-0.547c6.584-1.539,12.631-4.873,17.531-9.773
	c6.93-6.93,10.74-16.141,10.73-25.934L333.106-10H313.614z"/>
<path d="M304.061,40.494c0-2.364-3.41-4.282-7.616-4.282c-4.205,0-7.614,1.917-7.614,4.282v93.434c0,2.365,3.409,4.283,7.614,4.283
	c4.206,0,7.616-1.918,7.616-4.283V40.494z"/>
<path d="M486.829,353.462H106.066h-13.32v32.99c0,3.678,2.982,6.66,6.66,6.66h394.081c3.678,0,6.66-2.982,6.66-6.66v-32.99H486.829z
	 M486.829,379.794H137.746h-31.68v-13.014h380.763V379.794z"/>
<path d="M105.665,337.033c0-105.197,85.584-190.782,190.781-190.782c105.198,0,190.782,85.585,190.782,190.782
	c0,17.211-2.305,33.893-6.598,49.766h19.662c3.899-16.102,5.918-32.777,5.918-49.766c0-56.029-21.819-108.707-61.438-148.327
	c-39.62-39.62-92.297-61.44-148.327-61.44c-56.03,0-108.706,21.82-148.326,61.44c-39.619,39.62-61.438,92.297-61.438,148.327
	c0,16.988,2.019,33.664,5.918,49.766h19.663C107.97,370.925,105.665,354.244,105.665,337.033z"/>
<g>
	<path d="M145.06,357.888c-0.937-6.82-1.429-13.781-1.429-20.855c0-35.135,12.276-69.469,34.568-96.68
		c3.321-4.055,2.728-10.035-1.327-13.357s-10.036-2.729-13.357,1.326c-25.064,30.594-38.867,69.203-38.867,108.711
		c0,7.08,0.439,14.059,1.278,20.916C132.303,357.947,138.682,357.931,145.06,357.888z"/>
	<path d="M447.863,357.662c6.4-0.613,12.804-0.818,19.206-0.721c0.762-6.535,1.176-13.174,1.176-19.908
		c0-94.73-77.068-171.8-171.798-171.8c-39.509,0-78.116,13.803-108.71,38.868c-4.055,3.322-4.649,9.301-1.328,13.355
		c3.322,4.055,9.302,4.65,13.357,1.328c27.211-22.292,61.546-34.567,96.681-34.567c84.261,0,152.815,68.553,152.815,152.815
		C449.261,344.029,448.781,350.914,447.863,357.662z"/>
</g>
</svg>
