<?xml version="1.0" encoding="utf-8"?>
<!-- Generator: Adobe Illustrator 16.0.0, SVG Export Plug-In . SVG Version: 6.00 Build 0)  -->
<!DOCTYPE svg PUBLIC "-//W3C//DTD SVG 1.1//EN" "http://www.w3.org/Graphics/SVG/1.1/DTD/svg11.dtd">
<svg version="1.1" id="Capa_1" xmlns="http://www.w3.org/2000/svg" xmlns:xlink="http://www.w3.org/1999/xlink" x="0px" y="0px"
	 width="595.281px" height="419.531px" viewBox="0 0 595.281 419.531" enable-background="new 0 0 595.281 419.531"
	 xml:space="preserve">
<path d="M309.615,23.346c-1.938,0.001-3.693,0.786-4.965,2.058c-1.27,1.27-2.055,3.024-2.055,4.964
	c-0.002,3.877,3.143,7.021,7.02,7.021h5.453l0.006,9.46c0.006,6.039-2.344,11.718-6.619,15.992c-4.164,4.164-9.666,6.5-15.541,6.623
	c-0.342-0.023-0.688-0.029-1.033-0.001c-5.828-0.139-11.289-2.47-15.432-6.612c-4.275-4.274-6.629-9.953-6.627-15.984l0.008-9.478
	h16.523c3.877-0.001,7.02-3.145,7.02-7.021c0.002-3.878-3.143-7.021-7.02-7.021h-30.563l-0.01,23.511
	c-0.004,9.788,3.809,18.994,10.738,25.924c5.584,5.583,12.65,9.141,20.305,10.311c14.029-0.548,0,0,14.029-0.548
	c6.584-1.539,12.631-4.873,17.531-9.773c6.93-6.93,10.74-16.14,10.73-25.934l-0.008-23.49H309.615z"/>
<path d="M300.072,73.841c0-2.365-3.41-4.283-7.615-4.283s-7.614,1.917-7.614,4.283v93.433c0,2.366,3.409,4.283,7.614,4.283
	s7.615-1.917,7.615-4.283V73.841z"/>
<g>
	<path d="M299.433,201.171c0-4.204-3.41-7.614-7.614-7.614c-4.206,0-7.614,3.408-7.614,7.614v206.1c0,4.205,3.408,7.613,7.614,7.613
		c4.204,0,7.614-3.408,7.614-7.613V201.171z"/>
	<path d="M226.197,398.526c-85.31-5.902-155.143-79.612-155.668-164.31c-0.063-10.162,0.923-20.06,2.816-29.613
		c-5.167,0.251-10.358,0.486-15.451-0.076c-0.15,0.102-0.307,0.195-0.473,0.279c-1.569,9.266-2.344,18.748-2.285,28.348
		c0.281,45.111,18.237,88.748,50.564,122.869c32.329,34.123,75.155,54.645,120.593,57.79c14.328,0.99,28.375,0.215,41.894-2.241
		c7.267-6.922,13.667-14.678,20.587-21.891C269.661,396.82,248.489,400.068,226.197,398.526z"/>
	<path d="M270.066,397.378c-13.898-1.438-27.751-4.852-41.141-10.395c-72.565-30.036-108.678-111.367-83.783-184.705
		c-5.329,0.849-10.686,1.515-16.088,1.883c-10.467,35.605-8.505,73.422,5.907,108.191c16.687,40.255,48.051,71.604,88.316,88.27
		c17.084,7.072,35.17,11.117,53.415,12.125C274.328,407.699,272.181,402.552,270.066,397.378z"/>
	<path d="M257.293,369.218c-46.727-44.81-57.705-113.088-32.199-168.896h-16.172c-8.354,20.409-12.513,42.504-12.038,65.216
		c0.913,43.566,18.736,84.172,50.19,114.334c13.345,12.799,28.724,23.14,45.354,30.713c-0.369-5.565-0.497-11.139-0.587-16.729
		C279.416,387.465,267.752,379.25,257.293,369.218z"/>
	<path d="M282.013,368.58c-41.223-46.78-47.578-112.471-21.103-165.023c-5.519,0.266-11.042,0.396-16.573,0.289
		c-7.845,17.566-12.571,36.576-13.82,56.35c-2.746,43.49,11.607,85.447,40.419,118.143c12.224,13.873,26.681,25.469,42.617,34.41
		c0.1-5.576,0.439-11.141,0.818-16.719C302.527,388.619,291.594,379.453,282.013,368.58z"/>
	<path d="M278.098,394.187c-13.356-4.102-26.285-10.136-38.347-18.167c-57.917-38.562-79.961-111.08-57.374-173.799
		c-5.232,0.068-10.465,0.092-15.699,0.098c-8.537,26.281-10.237,54.444-4.653,82.28c8.572,42.725,33.268,79.557,69.543,103.706
		c15.39,10.248,32.35,17.721,50.054,22.245C280.28,405.137,279.172,399.673,278.098,394.187z"/>
	<path d="M230.004,387.605c-13.802-2.168-27.455-6.311-40.533-12.553c-65.13-31.087-97.232-103.802-79.712-171.195
		c-4.93-0.681-9.858-1.392-14.782-1.941c-7.68,30.747-6.208,63.08,4.605,93.643c14.536,41.081,44.199,74.045,83.528,92.813
		c16.686,7.966,34.533,12.961,52.7,14.933C233.715,398.136,231.844,392.884,230.004,387.605z"/>
	<path d="M511.04,202.16c2.226,10.303,3.377,21.027,3.308,32.057c-0.525,84.697-70.357,158.407-155.668,164.31
		c-22.292,1.542-43.465-1.706-62.578-8.845c6.921,7.213,13.32,14.969,20.588,21.891c13.519,2.456,27.566,3.231,41.894,2.241
		c45.438-3.146,88.265-23.667,120.593-57.79c32.327-34.121,50.283-77.758,50.564-122.869c0.066-10.653-0.897-21.16-2.832-31.388
		C521.615,201.778,516.325,201.878,511.04,202.16z"/>
	<path d="M439.793,202.452c24.78,73.294-11.334,154.52-83.842,184.532c-13.39,5.543-27.242,8.957-41.141,10.395
		c-2.115,5.174-4.262,10.32-6.627,15.369c18.245-1.008,36.331-5.053,53.415-12.125c40.266-16.666,71.63-48.015,88.316-88.27
		c14.546-35.092,16.416-73.287,5.62-109.181C450.282,203.049,445.033,202.84,439.793,202.452z"/>
	<path d="M361.327,203.822c23.488,55.141,12.011,121.52-33.743,165.396c-10.459,10.031-22.123,18.247-34.549,24.638
		c-0.09,5.59-0.219,11.163-0.587,16.729c16.631-7.573,32.01-17.914,45.354-30.713c31.453-30.162,49.277-70.768,50.189-114.334
		c0.449-21.419-3.225-42.29-10.65-61.716H361.327z"/>
	<path d="M340.132,202.931c-5.367,0.134-10.731,0.377-16.089,0.78c26.385,52.526,20.002,118.134-21.18,164.868
		c-9.58,10.873-20.514,20.039-32.358,27.449c0.379,5.578,0.719,11.143,0.818,16.719c15.937-8.941,30.394-20.537,42.617-34.41
		c28.812-32.695,43.165-74.652,40.419-118.143C353.089,240.078,348.222,220.75,340.132,202.931z"/>
	<path d="M402.103,201.128c23.24,62.967,1.275,136.105-56.979,174.892c-12.062,8.031-24.99,14.065-38.346,18.167
		c-1.074,5.486-2.183,10.95-3.525,16.363c17.705-4.524,34.664-11.997,50.055-22.245c36.274-24.149,60.971-60.981,69.543-103.706
		c5.707-28.452,3.801-57.246-5.235-84.023C412.432,200.533,407.258,200.668,402.103,201.128z"/>
	<path d="M474.866,202.893c18.078,67.663-14.021,140.924-79.461,172.159c-13.077,6.242-26.73,10.385-40.532,12.553
		c-1.841,5.279-3.711,10.531-5.807,15.699c18.166-1.972,36.014-6.967,52.699-14.933c39.329-18.769,68.992-51.732,83.528-92.813
		c10.46-29.563,12.185-60.781,5.336-90.619C485.376,204.261,480.127,203.517,474.866,202.893z"/>
	<path d="M314.045,388.279c0,10.445-8.498,18.943-18.943,18.943s-18.943-8.498-18.943-18.943c0-0.068,0.01-0.133,0.01-0.201h-11.315
		c0,0.068-0.005,0.133-0.005,0.201c0,16.68,13.572,30.252,30.254,30.252s30.254-13.572,30.254-30.252
		c0-0.068-0.005-0.133-0.005-0.201h-11.315C314.035,388.146,314.045,388.21,314.045,388.279z"/>
	<path d="M534.023,166.557H53.26H39.94v32.99c0,3.678,2.982,6.66,6.66,6.66h38.34h13.32v-2.332h5v2.332h385.763h5h8.318h38.34
		c3.678,0,6.66-2.981,6.66-6.66v-32.99H534.023z M534.023,192.888h-31.682H84.94H53.26v-13.013h480.763V192.888z"/>
</g>
</svg>
