<?xml version="1.0" encoding="utf-8"?>
<!-- Generator: Adobe Illustrator 16.0.0, SVG Export Plug-In . SVG Version: 6.00 Build 0)  -->
<!DOCTYPE svg PUBLIC "-//W3C//DTD SVG 1.1//EN" "http://www.w3.org/Graphics/SVG/1.1/DTD/svg11.dtd">
<svg version="1.1" id="Capa_1" xmlns="http://www.w3.org/2000/svg" xmlns:xlink="http://www.w3.org/1999/xlink" x="0px" y="0px"
	 width="646.482px" height="372.789px" viewBox="-27.926 21.787 646.482 372.789"
	 enable-background="new -27.926 21.787 646.482 372.789" xml:space="preserve">
<path d="M270.121,379.22c5.584,5.583,12.65,9.141,20.305,10.311c14.028-0.548,0,0,14.028-0.548
	c6.585-1.539,12.632-4.873,17.531-9.773c6.931-6.93,10.741-16.14,10.731-25.934l-0.009-12.093
	c7.034-3.697,13.441-8.416,19.091-14.065c14.744-14.744,22.861-34.301,22.856-55.07c-0.001-3.877-3.145-7.02-7.021-7.02H224.481
	c-1.938,0-3.694,0.785-4.964,2.056c-1.271,1.271-2.056,3.025-2.057,4.964c-0.006,28.979,16.311,55.635,41.932,69.133l-0.01,12.116
	C259.379,363.084,263.191,372.291,270.121,379.22z M273.424,353.305l0.008-9.478h16.522c3.878-0.001,7.021-3.145,7.021-7.021
	c0.001-3.878-3.143-7.021-7.021-7.021h-21.958c-20.081-9.684-33.677-28.99-36.104-50.719l128.342,0.001
	c-1.568,14.372-7.95,27.706-18.363,38.12c-5.197,5.196-11.18,9.421-17.783,12.598h-10.871c-1.938,0.001-3.693,0.786-4.965,2.058
	c-1.27,1.27-2.056,3.024-2.056,4.964c-0.001,3.877,3.144,7.021,7.021,7.021h5.452l0.007,9.46c0.006,6.039-2.345,11.718-6.619,15.992
	c-4.164,4.164-9.667,6.5-15.541,6.623c-0.342-0.023-0.688-0.029-1.034-0.001c-5.827-0.139-11.288-2.47-15.431-6.612
	C275.775,365.015,273.422,359.336,273.424,353.305z"/>
<path d="M313.217,21.787c-1.938,0.001-3.693,0.786-4.965,2.058c-1.27,1.27-2.056,3.024-2.056,4.964
	c-0.001,3.877,3.144,7.021,7.021,7.021h5.452l0.007,9.46c0.006,6.039-2.345,11.718-6.619,15.992
	c-4.164,4.164-9.667,6.5-15.541,6.623c-0.342-0.023-0.688-0.029-1.034-0.001c-5.827-0.139-11.288-2.47-15.431-6.612
	c-4.275-4.274-6.629-9.953-6.627-15.984l0.008-9.478h16.522c3.878-0.001,7.021-3.145,7.021-7.021
	c0.001-3.878-3.143-7.021-7.021-7.021h-30.562l-0.01,23.511c-0.004,9.788,3.809,18.994,10.738,25.924
	c5.584,5.583,12.65,9.141,20.305,10.311c14.028-0.548,0,0,14.028-0.548c6.585-1.539,12.632-4.873,17.531-9.773
	c6.931-6.93,10.741-16.14,10.731-25.934l-0.009-23.49H313.217z"/>
<path d="M303.673,75.613c0-4.205-3.41-7.614-7.614-7.614c-4.206,0-7.615,3.408-7.615,7.614v191.101c0,4.205,3.409,7.614,7.615,7.614
	c4.204,0,7.614-3.409,7.614-7.614V75.613z"/>
<path d="M113.091,287.608l-8.574-8.561c8.572-27.661,1.261-58.048-19.234-78.535c-1.371-1.37-3.168-2.056-4.964-2.056
	c-1.796-0.001-3.593,0.686-4.964,2.056L-25.87,301.738c-2.74,2.741-2.741,7.186-0.001,9.928
	c14.683,14.689,34.252,22.779,55.103,22.779c7.99,0,15.857-1.194,23.445-3.554l8.545,8.557c6.918,6.933,16.125,10.75,25.926,10.75
	c6.93,0,13.563-1.918,19.308-5.485c10.307-9.532,0,0,10.307-9.532c4.585-6.24,7.066-13.752,7.067-21.648
	C123.829,303.732,120.014,294.526,113.091,287.608z M109.785,313.531c0,5.858-2.213,11.368-6.235,15.587
	c-0.265,0.225-0.506,0.474-0.73,0.732c-4.24,4.066-9.783,6.306-15.673,6.306c-6.045,0-11.722-2.354-15.988-6.628l-6.685-6.694
	l3.855-3.854c2.741-2.742,2.742-7.188,0-9.929c-1.371-1.372-3.168-2.057-4.964-2.057c-1.798,0-3.594,0.686-4.965,2.056l-7.688,7.688
	c-6.916,2.423-14.133,3.666-21.482,3.666c-14.727,0-28.668-4.916-39.939-13.97l90.751-90.752
	c13.648,17.08,17.686,40.346,10.334,61.392L74.849,292.6c-2.742,2.742-2.742,7.188,0,9.93c2.741,2.74,7.186,2.741,9.929,0
	l11.684-11.684l6.707,6.696C107.434,301.805,109.786,307.485,109.785,313.531z"/>
<path d="M229.398,308.112c2.881-3.063,7.7-3.207,10.762-0.325s3.21,7.701,0.327,10.763l-69.292,73.62
	c-2.882,3.063-7.701,3.208-10.764,0.325c-3.062-2.881-3.208-7.7-0.326-10.763L229.398,308.112z"/>
<path d="M170.517,381.417l-54.851-51.625c-1.623,0.634-3.251,1.258-4.894,1.846c-0.307,0.342-0.67,0.662-1.109,0.945
	c2.512-1.62,0.466,1.123-0.206,2.206c-1.028,1.658-2.83,2.59-4.724,2.447l-0.276,0.553c-0.284,0.567-0.642,1.02-1.045,1.383
	l56.667,53.335c3.063,2.882,7.883,2.735,10.764-0.326C173.725,389.118,173.579,384.298,170.517,381.417z"/>
<path d="M466.802,313.532c0.001,7.896,2.482,15.408,7.067,21.648c10.307,9.532,0,0,10.307,9.532
	c5.745,3.567,12.378,5.485,19.308,5.485c9.801,0,19.008-3.817,25.926-10.75l8.545-8.557c7.588,2.359,15.455,3.554,23.445,3.554
	c20.851,0,40.42-8.09,55.103-22.779c2.74-2.742,2.739-7.187-0.001-9.928L515.276,200.513c-1.371-1.37-3.168-2.057-4.964-2.056
	c-1.796,0-3.593,0.686-4.964,2.056c-20.495,20.487-27.807,50.874-19.234,78.535l-8.574,8.561
	C470.616,294.526,466.802,303.732,466.802,313.532z M487.462,297.542l6.707-6.696l11.684,11.684c2.743,2.741,7.188,2.74,9.929,0
	c2.742-2.742,2.742-7.188,0-9.93l-15.526-15.527c-7.352-21.046-3.314-44.312,10.334-61.392l90.751,90.752
	c-11.271,9.054-25.213,13.97-39.939,13.97c-7.35,0-14.566-1.243-21.482-3.666l-7.688-7.688c-1.371-1.37-3.167-2.056-4.965-2.056
	c-1.796,0-3.593,0.685-4.964,2.057c-2.742,2.74-2.741,7.187,0,9.929l3.855,3.854l-6.685,6.694
	c-4.267,4.274-9.943,6.628-15.988,6.628c-5.89,0-11.433-2.239-15.673-6.306c-0.225-0.259-0.466-0.508-0.73-0.732
	c-4.022-4.219-6.235-9.729-6.235-15.587C480.844,307.485,483.196,301.805,487.462,297.542z"/>
<path d="M361.232,308.112c-2.881-3.063-7.7-3.207-10.762-0.325s-3.21,7.701-0.327,10.763l69.292,73.62
	c2.882,3.063,7.701,3.208,10.764,0.325c3.062-2.881,3.208-7.7,0.326-10.763L361.232,308.112z"/>
<path d="M420.113,381.417l54.851-51.625c1.622,0.634,3.251,1.258,4.894,1.846c0.307,0.342,0.67,0.662,1.109,0.945
	c-2.512-1.62-0.466,1.123,0.206,2.206c1.028,1.658,2.829,2.59,4.724,2.447l0.276,0.553c0.284,0.567,0.642,1.02,1.046,1.383
	l-56.667,53.335c-3.063,2.882-7.883,2.735-10.764-0.326C416.905,389.118,417.052,384.298,420.113,381.417z"/>
</svg>
