<?xml version="1.0" encoding="utf-8"?>
<!-- Generator: Adobe Illustrator 16.0.0, SVG Export Plug-In . SVG Version: 6.00 Build 0)  -->
<!DOCTYPE svg PUBLIC "-//W3C//DTD SVG 1.1//EN" "http://www.w3.org/Graphics/SVG/1.1/DTD/svg11.dtd">
<svg version="1.1" id="Capa_1" xmlns="http://www.w3.org/2000/svg" xmlns:xlink="http://www.w3.org/1999/xlink" x="0px" y="0px"
	 width="647.952px" height="410.997px" viewBox="-23.352 3.78 647.952 410.997"
	 enable-background="new -23.352 3.78 647.952 410.997" xml:space="preserve">
<path d="M108.159,293.73c0.022-0.274,0.044-0.541,0.045-0.615c0.004-0.465,0.009-0.931-0.023-1.395
	c-0.011-0.208-0.033-0.415-0.052-0.622c-0.014-0.075-0.034-0.184-0.063-0.354c-0.007-0.029-0.014-0.06-0.021-0.089
	c-0.149,0.862-0.291,1.735-0.429,2.614C107.804,293.408,107.986,293.557,108.159,293.73z"/>
<path d="M207.699,266.344c-21.548-25.976-43.745-37.394-62.5-32.154c-15.613,4.36-27.946,20.029-34.509,44.414
	c6.864,3.217,8.704,12.438,6.883,19.363c-0.904,3.44-3.013,7.204-6.79,8.014c-0.125,0.026-0.246,0.038-0.369,0.059
	c0.967,0.396,2.022,0.566,3.208,0.38c1.138-0.18,2.367,0.021,3.43,0.53c0.169-1.551,0.355-3.09,0.583-4.609
	c9.332-62.674,44.064-72.377,84.527-23.609c11.463,13.818,21.492,31.06,29.949,50.053l12.37-2.882
	C233.983,302.75,221.064,282.455,207.699,266.344z"/>
<g>
	<path d="M128.403,299.702c0-7.896-2.482-15.408-7.067-21.647c-10.307-9.533,0,0-10.307-9.533
		c-5.744-3.568-12.376-5.486-19.307-5.486c-9.8,0-19.008,3.818-25.926,10.75l-8.546,8.557c-7.587-2.358-15.456-3.553-23.444-3.553
		c-20.851,0-40.419,8.089-55.103,22.777c-2.74,2.743-2.74,7.188,0.001,9.929L79.928,412.719c1.371,1.371,3.168,2.058,4.963,2.058
		c1.797-0.002,3.592-0.687,4.965-2.057c20.495-20.486,27.807-50.873,19.234-78.534l8.574-8.561
		C124.589,318.707,128.403,309.501,128.403,299.702z M107.743,315.691l-6.708,6.696l-11.684-11.684c-2.742-2.741-7.187-2.74-9.927,0
		c-2.744,2.741-2.743,7.187-0.001,9.929L94.95,336.16c7.352,21.046,3.313,44.312-10.334,61.393L-6.136,306.8
		c11.272-9.054,25.213-13.971,39.941-13.971c7.349,0.002,14.566,1.244,21.482,3.667l7.687,7.687c1.37,1.37,3.167,2.057,4.965,2.057
		c1.795,0,3.592-0.687,4.963-2.058c2.743-2.74,2.742-7.186,0-9.927l-3.856-3.856l6.686-6.694c4.266-4.273,9.942-6.627,15.989-6.627
		c5.889,0,11.431,2.238,15.672,6.306c0.226,0.259,0.466,0.507,0.729,0.731c4.023,4.22,6.237,9.729,6.237,15.587
		C114.36,305.749,112.009,311.427,107.743,315.691z"/>
	<path d="M15.779,348.854c-7.386,7.386-7.386,19.404,0,26.79s19.404,7.386,26.79,0c0.048-0.049,0.087-0.101,0.135-0.149l8.001,8.001
		c-0.048,0.049-0.09,0.098-0.139,0.146c-11.794,11.794-30.988,11.794-42.784-0.002c-11.795-11.796-11.795-30.989-0.001-42.784
		c0.048-0.048,0.097-0.09,0.146-0.139l8.001,8.001C15.88,348.767,15.827,348.806,15.779,348.854z"/>
</g>
<path d="M485.99,305.205c-11.456,17.349-24.177,32.713-37.752,44.463c-31.73,27.464-56.771,30.034-69.758,10.242
	c-1.791-8.714-4.52-16.309-8.094-22.627c-3.549-6.275-7.93-11.291-13.037-14.916c-1.8-1.277-3.686-2.392-5.662-3.315
	c-13.742-6.42-30.968-3.821-49.857,7.197c3.544,3.29,5.851,7.407,7.834,11.756c22.853-11.691,40.533-8.002,50.396,9.864
	c1.499,6.622,3.598,12.517,6.243,17.603c3.796,7.3,8.718,12.932,14.604,16.675c1.237,0.786,2.512,1.5,3.832,2.117
	c17.642,8.242,41.412,0.619,66.93-21.467c15.826-13.702,31.9-31.604,46.055-52.72L485.99,305.205z"/>
<g>
	<g>
		<path d="M306.831,142.848c7.342-2.909,13.411-7.983,17.523-14.542c5.067-13.096,0,0,5.067-13.096
			c1.201-6.652,0.541-13.525-2.011-19.969c-3.609-9.111-10.551-16.265-19.543-20.144l-11.104-4.793
			c-0.602-7.923-2.389-15.678-5.331-23.104c-7.68-19.385-22.407-34.599-41.472-42.84c-3.558-1.538-7.691,0.1-9.229,3.658
			l-56.828,131.39c-0.77,1.78-0.747,3.704-0.085,5.373c0.663,1.67,1.962,3.086,3.74,3.858c26.595,11.509,57.539,7.116,80.099-11.042
			l11.116,4.816C287.758,146.303,297.72,146.457,306.831,142.848z M284.356,129.529l-8.694-3.77l6.559-15.166
			c1.538-3.558-0.1-7.691-3.656-9.229c-3.561-1.541-7.693,0.098-9.232,3.656l-8.717,20.154
			c-16.858,14.585-39.975,19.401-60.883,13.004L250.68,20.381c12.568,7.146,22.274,18.295,27.698,31.988
			c2.705,6.833,4.208,14,4.504,21.323l-4.316,9.978c-0.768,1.777-0.745,3.701-0.083,5.373c0.662,1.669,1.963,3.086,3.742,3.856
			c3.557,1.542,7.689-0.097,9.228-3.656l2.165-5.005l8.687,3.75c5.545,2.392,9.824,6.802,12.051,12.424
			c2.169,5.474,2.129,11.452-0.091,16.893c-0.156,0.306-0.3,0.621-0.411,0.949c-2.441,5.294-6.748,9.38-12.194,11.539
			C296.038,132.019,289.892,131.926,284.356,129.529z"/>
		<path d="M219.654,56.244c-9.587-4.146-20.76,0.28-24.907,9.867c-4.146,9.586,0.281,20.76,9.867,24.907
			c0.063,0.027,0.126,0.043,0.189,0.071l-4.493,10.386c-0.063-0.027-0.124-0.048-0.187-0.075
			c-15.308-6.622-22.377-24.467-15.756-39.777c6.624-15.311,24.468-22.38,39.777-15.759c0.062,0.027,0.119,0.058,0.183,0.084
			l-4.493,10.386C219.771,56.306,219.716,56.271,219.654,56.244z"/>
	</g>
	<g>
		<path d="M325.5,260.082c33.73,1.063,57.427-8.898,65.926-26.417c8.499-17.52,1.223-41.397-20.49-67.234
			c-13.469-16.022-31.137-32.355-52.043-46.816l-5.042,11.659c17.18,11.708,32.355,24.652,43.908,38.396
			c40.768,48.511,25.026,80.956-38.308,78.959c-1.536-0.047-3.085-0.138-4.639-0.247c0.31,1.136,0.288,2.382-0.09,3.469
			c-0.895,2.563,0.056,4.818,1.591,6.878c0.215,0.289,0.388,0.582,0.532,0.872C319.78,259.828,322.672,259.995,325.5,260.082z"/>
		<path d="M339.385,249.023c-0.217-0.288-0.389-0.582-0.534-0.873c-2.934-0.226-5.826-0.394-8.654-0.481
			c-33.731-1.061-57.428,8.9-65.926,26.418c-6.135,12.646-4.046,28.607,5.756,46.226c0.312-0.441,0.718-0.856,1.241-1.23
			c3.123-2.226,4.639-5.482,5.887-9.016c0.323-0.914,0.955-1.628,1.733-2.133c-12.189-31.239,8.305-50.357,57.358-48.811
			c1.536,0.048,3.084,0.138,4.638,0.247c-0.309-1.136-0.288-2.382,0.091-3.469C341.868,253.336,340.919,251.083,339.385,249.023z"/>
	</g>
</g>
<g>
	<path d="M472.845,284.076c0,7.896,2.482,15.408,7.066,21.646c10.309,9.535,0,0,10.309,9.535c5.742,3.566,12.375,5.484,19.307,5.484
		c9.799,0,19.008-3.818,25.926-10.75l8.545-8.557c7.588,2.359,15.455,3.553,23.443,3.553c20.852,0,40.42-8.088,55.104-22.777
		c2.74-2.742,2.74-7.188-0.002-9.928L521.32,171.059c-1.371-1.371-3.168-2.059-4.965-2.059c-1.797,0.002-3.592,0.688-4.965,2.057
		c-20.494,20.486-27.807,50.873-19.234,78.535l-8.572,8.561C476.658,265.07,472.845,274.275,472.845,284.076z M493.506,268.085
		l6.707-6.695l11.684,11.684c2.742,2.74,7.188,2.74,9.928,0c2.744-2.742,2.742-7.188,0.002-9.93l-15.527-15.527
		c-7.352-21.045-3.314-44.311,10.334-61.392l90.751,90.751c-11.272,9.055-25.213,13.971-39.94,13.971
		c-7.35-0.002-14.566-1.244-21.482-3.666l-7.688-7.688c-1.369-1.369-3.166-2.057-4.965-2.057c-1.795,0-3.592,0.688-4.963,2.059
		c-2.744,2.74-2.742,7.186,0,9.926l3.855,3.857l-6.686,6.693c-4.266,4.275-9.943,6.629-15.988,6.629
		c-5.889,0-11.432-2.24-15.672-6.307c-0.227-0.258-0.467-0.508-0.73-0.732c-4.023-4.219-6.236-9.729-6.236-15.586
		C486.888,278.029,489.238,272.349,493.506,268.085z"/>
	<path d="M585.469,234.923c7.386-7.387,7.386-19.404,0-26.791c-7.386-7.385-19.404-7.385-26.79,0
		c-0.048,0.049-0.087,0.102-0.136,0.15l-8-8.002c0.048-0.049,0.09-0.098,0.139-0.146c11.794-11.792,30.988-11.792,42.783,0.002
		c11.796,11.797,11.796,30.99,0.002,42.785c-0.049,0.047-0.098,0.09-0.146,0.139l-8-8.002
		C585.368,235.009,585.42,234.97,585.469,234.923z"/>
</g>
<path d="M270.595,403.531c26.666,0,48.361-21.695,48.361-48.361c0-26.668-21.695-48.363-48.361-48.363
	c-26.668,0-48.363,21.695-48.363,48.363C222.232,381.835,243.927,403.531,270.595,403.531z M270.595,321.687
	c18.461,0,33.48,15.02,33.48,33.482c0,18.461-15.02,33.48-33.48,33.48c-18.462,0-33.483-15.02-33.483-33.48
	C237.113,336.707,252.133,321.687,270.595,321.687z"/>
</svg>
