<?xml version="1.0" encoding="utf-8"?>
<!-- Generator: Adobe Illustrator 16.0.0, SVG Export Plug-In . SVG Version: 6.00 Build 0)  -->
<!DOCTYPE svg PUBLIC "-//W3C//DTD SVG 1.1//EN" "http://www.w3.org/Graphics/SVG/1.1/DTD/svg11.dtd">
<svg version="1.1" id="Capa_1" xmlns="http://www.w3.org/2000/svg" xmlns:xlink="http://www.w3.org/1999/xlink" x="0px" y="0px"
	 width="506.401px" height="465.996px" viewBox="48.582 -36.465 506.401 465.996"
	 enable-background="new 48.582 -36.465 506.401 465.996" xml:space="preserve">
<g>
	<path d="M275.02,237.71c-52.883,0-95.909,43.025-95.909,95.91c0,52.886,43.026,95.91,95.909,95.91
		c52.886,0,95.91-43.024,95.91-95.91C370.93,280.736,327.906,237.71,275.02,237.71z M275.02,414.775
		c-44.748,0-81.154-36.406-81.154-81.154s36.406-81.154,81.154-81.154c44.749,0,81.155,36.406,81.155,81.154
		S319.769,414.775,275.02,414.775z"/>
	<path d="M248.041,350.166l-19.952,19.953c-2.881,2.881-2.881,7.553,0,10.434c1.44,1.441,3.329,2.161,5.217,2.161
		s3.777-0.72,5.217-2.161l19.952-19.952c2.881-2.882,2.881-7.553,0-10.435C255.594,347.287,250.923,347.287,248.041,350.166z"/>
	<path d="M286.731,269.742c-2.88-2.881-7.551-2.881-10.434,0l-65.156,65.156c-2.881,2.881-2.881,7.553,0,10.434
		c1.441,1.44,3.329,2.162,5.217,2.162c1.889,0,3.777-0.722,5.217-2.162l65.156-65.156
		C289.614,277.294,289.614,272.624,286.731,269.742z"/>
</g>
<g>
	<path d="M145.23,62.086c-52.883,0-95.909,43.025-95.909,95.91c0,52.885,43.026,95.91,95.909,95.91
		c52.886,0,95.911-43.024,95.911-95.91C241.141,105.111,198.116,62.086,145.23,62.086z M145.23,239.15
		c-44.748,0-81.154-36.406-81.154-81.154c0-44.748,36.406-81.154,81.154-81.154c44.749,0,81.155,36.406,81.155,81.154
		C226.385,202.744,189.979,239.15,145.23,239.15z"/>
	<path d="M118.251,174.541l-19.952,19.953c-2.881,2.881-2.881,7.553,0,10.434c1.44,1.441,3.329,2.162,5.216,2.162
		s3.777-0.721,5.217-2.162l19.952-19.952c2.881-2.882,2.881-7.553,0-10.435C125.803,171.662,121.133,171.662,118.251,174.541z"/>
	<path d="M156.941,94.117c-2.88-2.881-7.551-2.881-10.434,0l-65.156,65.156c-2.881,2.881-2.881,7.553,0,10.434
		c1.441,1.44,3.329,2.162,5.217,2.162c1.889,0,3.777-0.722,5.217-2.162l65.156-65.156C159.824,101.67,159.824,96.999,156.941,94.117
		z"/>
</g>
<g>
	<path d="M459.073,135.46c-52.883,0-95.909,43.025-95.909,95.91c0,52.886,43.026,95.91,95.909,95.91
		c52.886,0,95.91-43.024,95.91-95.91C554.983,178.486,511.959,135.46,459.073,135.46z M459.073,312.525
		c-44.748,0-81.154-36.406-81.154-81.154s36.406-81.154,81.154-81.154c44.749,0,81.155,36.406,81.155,81.154
		S503.822,312.525,459.073,312.525z"/>
	<path d="M432.094,247.916l-19.952,19.953c-2.881,2.881-2.881,7.553,0,10.434c1.44,1.441,3.329,2.161,5.217,2.161
		s3.777-0.72,5.217-2.161l19.952-19.952c2.881-2.882,2.881-7.553,0-10.435C439.646,245.037,434.975,245.037,432.094,247.916z"/>
	<path d="M470.784,167.492c-2.88-2.881-7.551-2.881-10.434,0l-65.156,65.156c-2.881,2.881-2.881,7.553,0,10.434
		c1.441,1.44,3.329,2.162,5.217,2.162c1.889,0,3.777-0.722,5.217-2.162l65.156-65.156
		C473.667,175.044,473.667,170.374,470.784,167.492z"/>
</g>
<path d="M282.635,243.337c0,3.479-3.41,6.299-7.614,6.299c-4.205,0-7.615-2.819-7.615-6.299V21.865h15.229V243.337z"/>
<path d="M152.846,68.712c0,2.441-3.41,4.42-7.615,4.42s-7.615-1.979-7.615-4.42V15.185h15.23V68.712z"/>
<path d="M466.689,141.636c0,3.588-3.41,6.496-7.615,6.496s-7.615-2.908-7.615-6.496V15.185h15.23V141.636z"/>
<g>
	<rect x="106.902" y="3.185" fill="none" width="390.763" height="10.681"/>
	<path d="M93.582,20.524V3.185h13.32v10.681h390.763V3.185h13.318v17.34c0,3.678-2.982,6.66-6.66,6.66H100.242
		C96.564,27.185,93.582,24.203,93.582,20.524z"/>
	<rect x="106.902" y="0.853" width="390.763" height="2.332"/>
	<path d="M55.242,3.185h38.34h13.32V0.853h390.763v2.332h13.318h38.34c3.678,0,6.66-2.982,6.66-6.66v-32.99h-13.318H61.902h-13.32
		v32.99C48.582,0.203,51.564,3.185,55.242,3.185z M93.582-10.134h-31.68v-13.013h480.763v13.013h-31.682H93.582z"/>
</g>
</svg>
