<?xml version="1.0" encoding="utf-8"?>
<!-- Generator: Adobe Illustrator 16.0.0, SVG Export Plug-In . SVG Version: 6.00 Build 0)  -->
<!DOCTYPE svg PUBLIC "-//W3C//DTD SVG 1.1//EN" "http://www.w3.org/Graphics/SVG/1.1/DTD/svg11.dtd">
<svg version="1.1" id="Capa_1" xmlns="http://www.w3.org/2000/svg" xmlns:xlink="http://www.w3.org/1999/xlink" x="0px" y="0px"
	 width="719.354px" height="419.531px" viewBox="-63.89 0 719.354 419.531" enable-background="new -63.89 0 719.354 419.531"
	 xml:space="preserve">
<path d="M313.217,0c-1.938,0.001-3.693,0.786-4.965,2.058c-1.27,1.27-2.056,3.024-2.056,4.964c-0.001,3.877,3.144,7.021,7.021,7.021
	h5.452l0.007,9.46c0.006,6.039-2.345,11.718-6.619,15.992c-4.164,4.164-9.667,6.5-15.541,6.623
	c-0.342-0.023-0.688-0.029-1.034-0.001c-5.827-0.139-11.288-2.47-15.431-6.612c-4.275-4.274-6.629-9.953-6.627-15.984l0.008-9.478
	h16.522c3.878-0.001,7.021-3.145,7.021-7.021C296.975,3.144,293.832,0,289.954,0h-30.562l-0.01,23.511
	c-0.004,9.788,3.809,18.994,10.738,25.924c5.584,5.583,12.65,9.141,20.305,10.311c14.028-0.548,0,0,14.028-0.548
	c6.585-1.539,12.632-4.873,17.531-9.773c6.931-6.93,10.741-16.14,10.731-25.934L332.708,0H313.217z"/>
<path d="M303.673,53.826c0-4.205-3.41-7.614-7.614-7.614c-4.206,0-7.615,3.408-7.615,7.614v166.101c0,4.205,3.409,7.613,7.615,7.613
	c4.204,0,7.614-3.408,7.614-7.613V53.826z"/>
<path d="M267.545,135.428c-30.815-30.814-71.784-47.784-115.363-47.784c-43.577,0-84.546,16.97-115.361,47.784
	c-13.074,13.074-23.737,28.234-31.652,44.702c5.569-0.252,11.145-0.265,16.734-0.238c6.65-12.288,15.109-23.777,25.356-34.024
	c57.854-57.854,151.99-57.854,209.845,0c15.118,15.118,26.276,32.717,33.491,51.496c0.53-9.981,1.758-19.959,1.872-29.992
	C285.6,155.872,277.261,145.145,267.545,135.428z"/>
<path d="M297.419,208.773c-12.416-31.382-30.965-49.176-50.418-50.021c-19.454-0.847-38.48,15.311-53.575,45.496
	c-9.361,18.722-17.338,41.421-22.311,66.352h12.703c3.926-20.416,9.782-39.485,17.811-55.543
	c28.342-56.677,64.37-55.108,87.68,3.816c0.565,1.428,1.097,2.885,1.613,4.355c0.919-0.736,2.071-1.212,3.219-1.296
	c2.708-0.197,4.4-1.962,5.682-4.189c0.18-0.313,0.379-0.587,0.59-0.835C299.455,214.124,298.46,211.404,297.419,208.773z"/>
<g>
	<path d="M40.645,182.089c-5.584-5.583-12.65-9.141-20.305-10.311c-14.029,0.548,0,0-14.029,0.548
		c-6.584,1.539-12.631,4.873-17.531,9.773c-6.93,6.93-10.74,16.14-10.73,25.934l0.008,12.093
		c-7.033,3.697-13.441,8.416-19.09,14.064c-14.744,14.744-22.861,34.301-22.857,55.07c0.002,3.877,3.145,7.02,7.021,7.02H86.284
		c1.939,0,3.695-0.785,4.965-2.055c1.27-1.271,2.055-3.025,2.057-4.965c0.006-28.979-16.311-55.635-41.932-69.133l0.01-12.116
		C51.387,198.225,47.575,189.019,40.645,182.089z M37.343,208.004l-0.008,9.478H20.811c-3.877,0-7.02,3.145-7.02,7.02
		c-0.002,3.879,3.143,7.021,7.02,7.021H42.77c20.08,9.684,33.676,28.99,36.104,50.719H-49.468
		c1.568-14.373,7.949-27.707,18.363-38.121c5.197-5.195,11.18-9.42,17.783-12.598H-2.45c1.938,0,3.693-0.785,4.965-2.057
		c1.27-1.27,2.055-3.025,2.055-4.965c0.002-3.877-3.143-7.02-7.02-7.02h-5.453l-0.006-9.46c-0.006-6.039,2.344-11.718,6.619-15.992
		c4.164-4.164,9.666-6.5,15.541-6.623c0.342,0.023,0.688,0.029,1.033,0.001c5.828,0.139,11.289,2.47,15.432,6.612
		C34.991,196.294,37.344,201.973,37.343,208.004z"/>
	<path d="M-4.236,296.482c0,10.445,8.498,18.943,18.943,18.943s18.943-8.498,18.943-18.943c0-0.068-0.01-0.133-0.01-0.201h11.315
		c0,0.068,0.005,0.133,0.005,0.201c0,16.68-13.572,30.252-30.254,30.252s-30.254-13.572-30.254-30.252
		c0-0.068,0.005-0.133,0.005-0.201h11.315C-4.226,296.349-4.236,296.414-4.236,296.482z"/>
</g>
<path d="M324.03,135.428c30.815-30.814,71.784-47.784,115.363-47.784c43.577,0,84.546,16.97,115.361,47.784
	c13.074,13.074,23.737,28.234,31.652,44.702c-5.569-0.252-11.145-0.265-16.733-0.238c-6.65-12.288-15.109-23.777-25.356-34.024
	c-57.854-57.854-151.99-57.854-209.845,0c-15.117,15.118-26.275,32.717-33.491,51.496c-0.53-9.981-1.758-19.959-1.871-29.992
	C305.974,155.872,314.313,145.145,324.03,135.428z"/>
<g>
	<path d="M540.191,208.013l0.01,12.115c-25.621,13.498-41.938,40.154-41.932,69.133c0.002,1.939,0.787,3.693,2.057,4.965
		c1.27,1.27,3.025,2.055,4.965,2.055h143.152c3.877,0,7.02-3.143,7.021-7.02c0.004-20.77-8.113-40.326-22.857-55.07
		c-5.648-5.648-12.057-10.367-19.09-14.064l0.008-12.094c0.01-9.793-3.801-19.003-10.73-25.933c-4.9-4.9-10.947-8.234-17.531-9.773
		c-14.029-0.548,0,0-14.029-0.548c-7.654,1.17-14.721,4.728-20.305,10.311C544,189.019,540.187,198.225,540.191,208.013z
		 M560.859,192.02c4.143-4.143,9.604-6.474,15.432-6.612c0.346,0.028,0.691,0.022,1.033-0.001
		c5.875,0.123,11.377,2.459,15.541,6.623c4.275,4.274,6.625,9.953,6.619,15.992l-0.006,9.461h-5.453c-3.877,0-7.021,3.143-7.02,7.02
		c0,1.939,0.785,3.695,2.055,4.965c1.271,1.271,3.027,2.057,4.965,2.057h10.871c6.604,3.178,12.586,7.402,17.783,12.598
		c10.414,10.414,16.795,23.748,18.363,38.121H512.701c2.428-21.729,16.023-41.035,36.104-50.719h21.959
		c3.877,0,7.021-3.143,7.02-7.021c0-3.875-3.143-7.02-7.02-7.02H554.24l-0.008-9.479C554.23,201.972,556.584,196.294,560.859,192.02
		z"/>
	<path d="M595.81,296.482c0,10.445-8.498,18.943-18.943,18.943s-18.943-8.498-18.943-18.943c0-0.068,0.01-0.133,0.01-0.201h-11.315
		c0,0.068-0.005,0.133-0.005,0.201c0,16.68,13.572,30.252,30.254,30.252s30.254-13.572,30.254-30.252
		c0-0.068-0.005-0.133-0.005-0.201h-11.315C595.801,296.349,595.81,296.414,595.81,296.482z"/>
</g>
<path d="M420.421,272.131c-4.947-25.535-13.067-48.777-22.62-67.884c-15.096-30.186-34.121-46.343-53.575-45.496
	c-19.453,0.846-38.002,18.64-50.418,50.021c-1.041,2.631-2.036,5.351-2.994,8.135c0.211,0.248,0.41,0.522,0.59,0.835
	c1.282,2.228,2.974,3.992,5.683,4.189c1.147,0.084,2.3,0.56,3.219,1.296c0.517-1.471,1.049-2.928,1.613-4.355
	c23.311-58.925,59.338-60.493,87.68-3.816c8.515,17.027,14.579,37.446,18.496,59.262
	C412.17,273.263,416.283,272.556,420.421,272.131z"/>
<g>
	<path d="M199.349,274.567c-5.584-5.583-12.65-9.141-20.305-10.311c-14.029,0.548,0,0-14.029,0.548
		c-6.584,1.539-12.631,4.873-17.531,9.773c-6.93,6.93-10.74,16.14-10.73,25.934l0.008,12.093
		c-7.033,3.697-13.441,8.416-19.09,14.065c-14.744,14.744-22.861,34.301-22.857,55.07c0.002,3.877,3.145,7.02,7.021,7.02h143.152
		c1.939,0,3.695-0.785,4.965-2.056s2.055-3.025,2.057-4.964c0.006-28.979-16.311-55.635-41.932-69.133l0.01-12.116
		C210.091,290.703,206.279,281.497,199.349,274.567z M196.046,300.482l-0.008,9.478h-16.523c-3.877,0.001-7.02,3.145-7.02,7.021
		c-0.002,3.878,3.143,7.021,7.02,7.021h21.959c20.08,9.684,33.676,28.99,36.104,50.719l-128.342-0.001
		c1.568-14.372,7.949-27.706,18.363-38.12c5.197-5.196,11.18-9.421,17.783-12.598h10.871c1.938-0.001,3.693-0.786,4.965-2.058
		c1.27-1.27,2.055-3.024,2.055-4.964c0.002-3.877-3.143-7.021-7.02-7.021H150.8l-0.006-9.46c-0.006-6.039,2.344-11.718,6.619-15.992
		c4.164-4.164,9.666-6.5,15.541-6.623c0.342,0.023,0.688,0.029,1.033,0.001c5.828,0.139,11.289,2.47,15.432,6.612
		C193.695,288.772,196.048,294.451,196.046,300.482z"/>
	<path d="M154.468,388.959c0,10.445,8.498,18.943,18.943,18.943s18.943-8.498,18.943-18.943c0-0.067-0.01-0.133-0.01-0.2h11.315
		c0,0.067,0.005,0.133,0.005,0.2c0,16.681-13.572,30.253-30.254,30.253s-30.254-13.572-30.254-30.253c0-0.067,0.005-0.133,0.005-0.2
		h11.315C154.478,388.827,154.468,388.892,154.468,388.959z"/>
	<path d="M381.138,300.491l0.01,12.116c-25.621,13.498-41.938,40.154-41.932,69.133c0.002,1.938,0.787,3.693,2.057,4.964
		s3.025,2.056,4.965,2.056H489.39c3.877,0,7.02-3.143,7.021-7.02c0.004-20.77-8.113-40.326-22.857-55.07
		c-5.648-5.649-12.057-10.368-19.09-14.065l0.008-12.093c0.01-9.794-3.801-19.004-10.73-25.934c-4.9-4.9-10.947-8.234-17.531-9.773
		c-14.029-0.548,0,0-14.029-0.548c-7.654,1.17-14.721,4.728-20.305,10.311C384.947,281.497,381.135,290.703,381.138,300.491z
		 M401.806,284.498c4.143-4.143,9.604-6.474,15.432-6.612c0.346,0.028,0.691,0.022,1.033-0.001
		c5.875,0.123,11.377,2.459,15.541,6.623c4.275,4.274,6.625,9.953,6.619,15.992l-0.006,9.46h-5.453c-3.877,0-7.021,3.144-7.02,7.021
		c0,1.939,0.785,3.694,2.055,4.964c1.271,1.271,3.027,2.057,4.965,2.058h10.871c6.604,3.177,12.586,7.401,17.783,12.598
		c10.414,10.414,16.795,23.748,18.363,38.12l-128.342,0.001c2.428-21.729,16.023-41.035,36.104-50.719h21.959
		c3.877,0,7.021-3.144,7.02-7.021c0-3.876-3.143-7.02-7.02-7.021h-16.523l-0.008-9.478
		C395.177,294.451,397.531,288.772,401.806,284.498z"/>
	<path d="M436.758,388.959c0,10.445-8.498,18.943-18.943,18.943s-18.943-8.498-18.943-18.943c0-0.067,0.01-0.133,0.01-0.2h-11.314
		c0,0.067-0.006,0.133-0.006,0.2c0,16.681,13.572,30.253,30.254,30.253s30.254-13.572,30.254-30.253c0-0.067-0.004-0.133-0.004-0.2
		h-11.316C436.748,388.827,436.758,388.892,436.758,388.959z"/>
</g>
</svg>
